<?xml version="1.0" encoding="UTF-8" standalone="no"?>
<svg
   xmlns:dc="http://purl.org/dc/elements/1.1/"
   xmlns:cc="http://creativecommons.org/ns#"
   xmlns:rdf="http://www.w3.org/1999/02/22-rdf-syntax-ns#"
   xmlns:svg="http://www.w3.org/2000/svg"
   xmlns="http://www.w3.org/2000/svg"
   xmlns:sodipodi="http://sodipodi.sourceforge.net/DTD/sodipodi-0.dtd"
   xmlns:inkscape="http://www.inkscape.org/namespaces/inkscape"
   width="2048"
   height="2048"
   viewBox="-64 -384 2048 2048"
   id="svg2"
   version="1.1"
   inkscape:version="0.48.4 r9939"
   sodipodi:docname="video-x-generic.svg">
  <metadata
     id="metadata12">
    <rdf:RDF>
      <cc:Work
         rdf:about="">
        <dc:format>image/svg+xml</dc:format>
        <dc:type
           rdf:resource="http://purl.org/dc/dcmitype/StillImage" />
      </cc:Work>
    </rdf:RDF>
  </metadata>
  <defs
     id="defs10" />
  <sodipodi:namedview
     pagecolor="#ffffff"
     bordercolor="#666666"
     borderopacity="1"
     objecttolerance="10"
     gridtolerance="10"
     guidetolerance="10"
     inkscape:pageopacity="0"
     inkscape:pageshadow="2"
     inkscape:window-width="640"
     inkscape:window-height="480"
     id="namedview8"
     showgrid="false"
     inkscape:zoom="0.11523438"
     inkscape:cx="1024"
     inkscape:cy="1024"
     inkscape:window-x="370"
     inkscape:window-y="96"
     inkscape:window-maximized="0"
     inkscape:current-layer="svg2" />
  <g
     transform="matrix(0.92698827,0,0,-0.92698827,78.101695,1194.5554)"
     id="g4">
    <path
       d="M 384,-64 V 64 q 0,26 -19,45 -19,19 -45,19 H 192 Q 166,128 147,109 128,90 128,64 V -64 q 0,-26 19,-45 19,-19 45,-19 h 128 q 26,0 45,19 19,19 19,45 z m 0,384 v 128 q 0,26 -19,45 -19,19 -45,19 H 192 q -26,0 -45,-19 -19,-19 -19,-45 V 320 q 0,-26 19,-45 19,-19 45,-19 h 128 q 26,0 45,19 19,19 19,45 z m 0,384 v 128 q 0,26 -19,45 -19,19 -45,19 H 192 q -26,0 -45,-19 -19,-19 -19,-45 V 704 q 0,-26 19,-45 19,-19 45,-19 h 128 q 26,0 45,19 19,19 19,45 z M 1408,-64 v 512 q 0,26 -19,45 -19,19 -45,19 H 576 q -26,0 -45,-19 -19,-19 -19,-45 V -64 q 0,-26 19,-45 19,-19 45,-19 h 768 q 26,0 45,19 19,19 19,45 z M 384,1088 v 128 q 0,26 -19,45 -19,19 -45,19 H 192 q -26,0 -45,-19 -19,-19 -19,-45 v -128 q 0,-26 19,-45 19,-19 45,-19 h 128 q 26,0 45,19 19,19 19,45 z M 1792,-64 V 64 q 0,26 -19,45 -19,19 -45,19 h -128 q -26,0 -45,-19 -19,-19 -19,-45 V -64 q 0,-26 19,-45 19,-19 45,-19 h 128 q 26,0 45,19 19,19 19,45 z m -384,768 v 512 q 0,26 -19,45 -19,19 -45,19 H 576 q -26,0 -45,-19 -19,-19 -19,-45 V 704 q 0,-26 19,-45 19,-19 45,-19 h 768 q 26,0 45,19 19,19 19,45 z m 384,-384 v 128 q 0,26 -19,45 -19,19 -45,19 h -128 q -26,0 -45,-19 -19,-19 -19,-45 V 320 q 0,-26 19,-45 19,-19 45,-19 h 128 q 26,0 45,19 19,19 19,45 z m 0,384 v 128 q 0,26 -19,45 -19,19 -45,19 h -128 q -26,0 -45,-19 -19,-19 -19,-45 V 704 q 0,-26 19,-45 19,-19 45,-19 h 128 q 26,0 45,19 19,19 19,45 z m 0,384 v 128 q 0,26 -19,45 -19,19 -45,19 h -128 q -26,0 -45,-19 -19,-19 -19,-45 v -128 q 0,-26 19,-45 19,-19 45,-19 h 128 q 26,0 45,19 19,19 19,45 z m 128,160 V -96 q 0,-66 -47,-113 -47,-47 -113,-47 H 160 q -66,0 -113,47 -47,47 -47,113 v 1344 q 0,66 47,113 47,47 113,47 h 1600 q 66,0 113,-47 47,-47 47,-113 z"
       id="path6"
       inkscape:connector-curvature="0"
       style="fill:#000000" />
  </g>
</svg>
