<?xml version="1.0" encoding="UTF-8" standalone="no"?>
<svg
   xmlns:dc="http://purl.org/dc/elements/1.1/"
   xmlns:cc="http://creativecommons.org/ns#"
   xmlns:rdf="http://www.w3.org/1999/02/22-rdf-syntax-ns#"
   xmlns:svg="http://www.w3.org/2000/svg"
   xmlns="http://www.w3.org/2000/svg"
   xmlns:sodipodi="http://sodipodi.sourceforge.net/DTD/sodipodi-0.dtd"
   xmlns:inkscape="http://www.inkscape.org/namespaces/inkscape"
   width="2048"
   height="2048"
   viewBox="-256 -384 2048 2048"
   id="svg2"
   version="1.1"
   inkscape:version="0.48.4 r9939"
   sodipodi:docname="media-flash.svg">
  <metadata
     id="metadata12">
    <rdf:RDF>
      <cc:Work
         rdf:about="">
        <dc:format>image/svg+xml</dc:format>
        <dc:type
           rdf:resource="http://purl.org/dc/dcmitype/StillImage" />
      </cc:Work>
    </rdf:RDF>
  </metadata>
  <defs
     id="defs10" />
  <sodipodi:namedview
     pagecolor="#ffffff"
     bordercolor="#666666"
     borderopacity="1"
     objecttolerance="10"
     gridtolerance="10"
     guidetolerance="10"
     inkscape:pageopacity="0"
     inkscape:pageshadow="2"
     inkscape:window-width="1680"
     inkscape:window-height="986"
     id="namedview8"
     showgrid="true"
     inkscape:zoom="0.32593203"
     inkscape:cx="1271.4916"
     inkscape:cy="1061.2977"
     inkscape:window-x="-2"
     inkscape:window-y="-3"
     inkscape:window-maximized="1"
     inkscape:current-layer="svg2">
    <inkscape:grid
       type="xygrid"
       id="grid3072" />
  </sodipodi:namedview>
  <g
     transform="matrix(0,-1.2416946,-1.2416946,0,1564.4911,1595.1556)"
     id="g4">
    <path
       d="m 1280,0 128,0 0,896 c 0,9.33333 -3.3333,22.16667 -10,38.5 -6.6667,16.33333 -13.3333,27.83333 -20,34.5 l -281,281 c -6.6667,6.6667 -18,13.3333 -34,20 -16,6.6667 -29,10 -39,10 -796.25228,3.3855 -643.73829,1.6752 -896,0 L 128,0 c 663.09593,-3.1946793 91.16151,0.34778049 1152,0 z m 256,896 0,-928 c 0,-26.666667 -9.3333,-49.333333 -28,-68 -18.6667,-18.66667 -41.3333,-28 -68,-28 l -1344,0 c -26.666667,0 -49.333333,9.33333 -68,28 C 9.3333333,-81.333333 0,-58.666667 0,-32 l 0,1344 c 0,26.6667 9.3333333,49.3333 28,68 18.666667,18.6667 41.333333,28 68,28 l 928,0 c 26.6667,0 56,-6.6667 88,-20 32,-13.3333 57.3333,-29.3333 76,-48 l 280,-280 c 18.6667,-18.6667 34.6667,-44 48,-76 13.3333,-32 20,-61.33333 20,-88 z"
       id="path6"
       inkscape:connector-curvature="0"
       style="fill:#000000"
       sodipodi:nodetypes="ccsssssccccssssssssssssssss" />
  </g>
  <rect
     style="color:#000000;fill:#000000;fill-opacity:1;fill-rule:evenodd;stroke:#000000;stroke-width:1.39836299px;stroke-linecap:butt;stroke-linejoin:miter;stroke-miterlimit:4;stroke-opacity:1;stroke-dasharray:none;stroke-dashoffset:0;marker:none;visibility:visible;display:inline;overflow:visible;enable-background:accumulate"
     id="rect3010"
     width="237.28423"
     height="411.91864"
     x="1267.0514"
     y="-15.683758"
     ry="0" />
  <rect
     style="color:#000000;fill:#000000;fill-opacity:1;fill-rule:evenodd;stroke:#000000;stroke-width:1.39836299px;stroke-linecap:butt;stroke-linejoin:miter;stroke-miterlimit:4;stroke-opacity:1;stroke-dasharray:none;stroke-dashoffset:0;marker:none;visibility:visible;display:inline;overflow:visible;enable-background:accumulate"
     id="rect3010-5"
     width="237.28423"
     height="411.91864"
     x="146.44925"
     y="184.43065"
     ry="0" />
  <rect
     style="color:#000000;fill:#000000;fill-opacity:1;fill-rule:evenodd;stroke:#000000;stroke-width:1.39836299px;stroke-linecap:butt;stroke-linejoin:miter;stroke-miterlimit:4;stroke-opacity:1;stroke-dasharray:none;stroke-dashoffset:0;marker:none;visibility:visible;display:inline;overflow:visible;enable-background:accumulate"
     id="rect3010-54"
     width="237.28423"
     height="411.91864"
     x="986.33142"
     y="-14.768661"
     ry="0" />
  <rect
     style="color:#000000;fill:#000000;fill-opacity:1;fill-rule:evenodd;stroke:#000000;stroke-width:1.39836299px;stroke-linecap:butt;stroke-linejoin:miter;stroke-miterlimit:4;stroke-opacity:1;stroke-dasharray:none;stroke-dashoffset:0;marker:none;visibility:visible;display:inline;overflow:visible;enable-background:accumulate"
     id="rect3010-54-5"
     width="237.28423"
     height="411.91864"
     x="424.36847"
     y="-12.899807"
     ry="0" />
  <rect
     style="color:#000000;fill:#000000;fill-opacity:1;fill-rule:evenodd;stroke:#000000;stroke-width:1.39836299px;stroke-linecap:butt;stroke-linejoin:miter;stroke-miterlimit:4;stroke-opacity:1;stroke-dasharray:none;stroke-dashoffset:0;marker:none;visibility:visible;display:inline;overflow:visible;enable-background:accumulate"
     id="rect3010-54-8"
     width="237.28423"
     height="411.91864"
     x="703.58966"
     y="-13.515461"
     ry="0" />
</svg>
