<?xml version="1.0" encoding="UTF-8" standalone="no"?>
<svg
   xmlns:dc="http://purl.org/dc/elements/1.1/"
   xmlns:cc="http://creativecommons.org/ns#"
   xmlns:rdf="http://www.w3.org/1999/02/22-rdf-syntax-ns#"
   xmlns:svg="http://www.w3.org/2000/svg"
   xmlns="http://www.w3.org/2000/svg"
   xmlns:sodipodi="http://sodipodi.sourceforge.net/DTD/sodipodi-0.dtd"
   xmlns:inkscape="http://www.inkscape.org/namespaces/inkscape"
   width="2048"
   height="2048"
   viewBox="-448 -384 2048 2048"
   id="svg2"
   version="1.1"
   inkscape:version="0.48.4 r9939"
   sodipodi:docname="pda.svg">
  <metadata
     id="metadata12">
    <rdf:RDF>
      <cc:Work
         rdf:about="">
        <dc:format>image/svg+xml</dc:format>
        <dc:type
           rdf:resource="http://purl.org/dc/dcmitype/StillImage" />
        <dc:title />
      </cc:Work>
    </rdf:RDF>
  </metadata>
  <defs
     id="defs10" />
  <sodipodi:namedview
     pagecolor="#ffffff"
     bordercolor="#666666"
     borderopacity="1"
     objecttolerance="10"
     gridtolerance="10"
     guidetolerance="10"
     inkscape:pageopacity="0"
     inkscape:pageshadow="2"
     inkscape:window-width="1859"
     inkscape:window-height="1048"
     id="namedview8"
     showgrid="false"
     inkscape:zoom="0.16"
     inkscape:cx="1016.1548"
     inkscape:cy="554.29096"
     inkscape:window-x="-8"
     inkscape:window-y="-3"
     inkscape:window-maximized="1"
     inkscape:current-layer="g4"
     showguides="true"
     inkscape:guide-bbox="true" />
  <g
     transform="matrix(1,0,0,-1.067551,0,1375.1119)"
     id="g4">
    <path
       style="fill:#000000"
       d="m 178,1391.1395 c -44,0 -81.66667,-15.6785 -113,-47.0118 -31.33333,-31.3333 -47,-68.9923 -47,-112.9923 L 18,143.13077 C 18,99.130813 33.66667,61.471836 65,30.138532 96.33333,-1.1947708 134,-16.873273 178,-16.873273 l 832,0 c 44,0 81.6667,15.6785022 113,47.011805 31.3333,31.333304 47,68.992281 47,112.992238 l 0,1088.00463 c 0,44 -15.6667,81.659 -47,112.9923 -31.3333,31.3333 -69,47.0118 -113,47.0118 z m 0,-128.0091 832,0 c 8.6667,0 16.1667,-3.1511 22.5,-9.4844 6.3333,-6.3333 9.5,-13.8439 9.5,-22.5106 l 0,-772.6508 c 0,-8.66694 -3.1667,-16.1773 -9.5,-22.51068 -6.3333,-6.33337 -13.8333,-9.48432 -22.5,-9.48432 l -832,0 c -8.66667,0 -16.16667,3.15095 -22.5,9.48432 -6.33333,6.33338 -9.5,13.84374 -9.5,22.51068 l 0,772.6508 c 0,8.6667 3.16667,16.1773 9.5,22.5106 6.33333,6.3333 13.83333,9.4844 22.5,9.4844 z M 607.0312,344.61407 c 38.0426,9e-5 70.9492,-13.88374 98.75,-41.68419 27.8,-27.80027 41.6876,-60.78164 41.6876,-98.82432 0,-38.04249 -13.8876,-70.9361 -41.6876,-98.73645 -27.8008,-27.800526 -60.7074,-41.713397 -98.75,-41.713397 -38.04224,-9.4e-5 -70.98048,13.912871 -98.7812,41.713397 -27.80008,27.80035 -41.6875,60.69396 -41.6875,98.73645 0,38.04268 13.88732,71.02405 41.6875,98.82432 27.80072,27.80045 60.73896,41.68419 98.7812,41.68419 z m 318.1563,-80.1483 c 17.3333,0 32.3333,-6.33132 45,-18.99797 12.6667,-12.66666 19,-27.68795 19,-45.02127 0,-17.33332 -6.3333,-32.32539 -19,-44.99195 -12.6667,-12.66693 -27.6667,-18.99797 -45,-18.99797 -17.3333,0 -32.3333,6.33104 -45,18.99797 -12.6666,12.66656 -19,27.65863 -19,44.99195 0,17.33332 6.3333,32.35461 19,45.02127 12.6667,12.66665 27.6667,18.99797 45,18.99797 z m -643.59375,-0.059 c 17.3333,2.9e-4 32.3333,-6.33122 45,-18.99787 12.6667,-12.66666 19,-27.68795 19,-45.02127 0,-17.33332 -6.3333,-32.3252 -19,-44.99204 -12.6667,-12.66675 -27.6667,-18.99788 -45,-18.99788 -17.3333,0 -32.3333,6.33113 -45,18.99788 -12.6666,12.66684 -19,27.65872 -19,44.99204 0,17.33332 6.3333,32.35461 19,45.02127 12.6667,12.66665 27.6667,18.99797 45,18.99787 z"
       id="path6"
       inkscape:connector-curvature="0"
       sodipodi:nodetypes="sssssssssssssssssssssssssssssssssssssscssssscsssssssc" />
  </g>
</svg>
