<?xml version="1.0" encoding="UTF-8" standalone="no"?>
<!-- Generator: Adobe Illustrator 16.2.1, SVG Export Plug-In . SVG Version: 6.00 Build 0)  -->

<svg
   xmlns:dc="http://purl.org/dc/elements/1.1/"
   xmlns:cc="http://creativecommons.org/ns#"
   xmlns:rdf="http://www.w3.org/1999/02/22-rdf-syntax-ns#"
   xmlns:svg="http://www.w3.org/2000/svg"
   xmlns="http://www.w3.org/2000/svg"
   xmlns:sodipodi="http://sodipodi.sourceforge.net/DTD/sodipodi-0.dtd"
   xmlns:inkscape="http://www.inkscape.org/namespaces/inkscape"
   version="1.1"
   id="Layer_1"
   x="0px"
   y="0px"
   width="512px"
   height="512px"
   viewBox="0 0 512 512"
   style="enable-background:new 0 0 512 512;"
   xml:space="preserve"
   inkscape:version="0.48.4 r9939"
   sodipodi:docname="battery-low.svg"><metadata
     id="metadata9"><rdf:RDF><cc:Work
         rdf:about=""><dc:format>image/svg+xml</dc:format><dc:type
           rdf:resource="http://purl.org/dc/dcmitype/StillImage" /></cc:Work></rdf:RDF></metadata><defs
     id="defs7" /><sodipodi:namedview
     pagecolor="#ffffff"
     bordercolor="#666666"
     borderopacity="1"
     objecttolerance="10"
     gridtolerance="10"
     guidetolerance="10"
     inkscape:pageopacity="0"
     inkscape:pageshadow="2"
     inkscape:window-width="640"
     inkscape:window-height="480"
     id="namedview5"
     showgrid="false"
     inkscape:zoom="0.4609375"
     inkscape:cx="256"
     inkscape:cy="256"
     inkscape:window-x="160"
     inkscape:window-y="176"
     inkscape:window-maximized="0"
     inkscape:current-layer="Layer_1" /><path
     d="m 384.05,469.95 0,-381.1 c 0,-5.5 -4.5,-9.9 -10,-9.9 l -54,0 0,-36.9 c 0,-5.6 -4.5,-10.1 -10,-10.1 l -108,0 c -5.5,0 -10,4.5 -10,10.1 l 0,37 -54,0 c -5.5,0 -10,4.3 -10,9.9 l 0,381 c 0,5.6 4.5,10.1 10,10.1 l 236,0 c 5.5,0 10,-4.5 10,-10.1 z m -224,-358.9 32,0 32,0 0,-32.2 0,-14.8 64,0 0,14.8 0,32.2 32,0 32,0 0,177 -192,32 0,-209 z"
     id="path3"
     inkscape:connector-curvature="0" /></svg>