<?xml version="1.0" encoding="UTF-8" standalone="no"?>
<svg
   xmlns:dc="http://purl.org/dc/elements/1.1/"
   xmlns:cc="http://creativecommons.org/ns#"
   xmlns:rdf="http://www.w3.org/1999/02/22-rdf-syntax-ns#"
   xmlns:svg="http://www.w3.org/2000/svg"
   xmlns="http://www.w3.org/2000/svg"
   xmlns:sodipodi="http://sodipodi.sourceforge.net/DTD/sodipodi-0.dtd"
   xmlns:inkscape="http://www.inkscape.org/namespaces/inkscape"
   width="2048"
   height="2048"
   viewBox="-128 -384 2048 2048"
   id="svg2"
   version="1.1"
   inkscape:version="0.48.4 r9939"
   sodipodi:docname="key.svg">
  <metadata
     id="metadata12">
    <rdf:RDF>
      <cc:Work
         rdf:about="">
        <dc:format>image/svg+xml</dc:format>
        <dc:type
           rdf:resource="http://purl.org/dc/dcmitype/StillImage" />
      </cc:Work>
    </rdf:RDF>
  </metadata>
  <defs
     id="defs10" />
  <sodipodi:namedview
     pagecolor="#ffffff"
     bordercolor="#666666"
     borderopacity="1"
     objecttolerance="10"
     gridtolerance="10"
     guidetolerance="10"
     inkscape:pageopacity="0"
     inkscape:pageshadow="2"
     inkscape:window-width="640"
     inkscape:window-height="480"
     id="namedview8"
     showgrid="true"
     inkscape:zoom="0.32593203"
     inkscape:cx="1354.5793"
     inkscape:cy="1046.8316"
     inkscape:window-x="554"
     inkscape:window-y="172"
     inkscape:window-maximized="0"
     inkscape:current-layer="svg2">
    <inkscape:grid
       type="xygrid"
       id="grid2989" />
  </sodipodi:namedview>
  <g
     transform="matrix(-0.70428588,0.70991647,0.70991647,0.70428588,1129.7097,-345.16501)"
     id="g4">
    <path
       d="m 832,1024 q 0,80 -56,136 -56,56 -136,56 -80,0 -136,-56 -56,-56 -56,-136 0,-42 19,-83 -41,19 -83,19 -80,0 -136,-56 -56,-56 -56,-136 0,-80 56,-136 56,-56 136,-56 80,0 136,56 56,56 56,136 0,42 -19,83 41,-19 83,-19 80,0 136,56 56,56 56,136 z m 851,-704 q 0,-17 -49,-66 -49,-49 -66,-49 -9,0 -28.5,16 -19.5,16 -36.5,33 -17,17 -38.5,40 -21.5,23 -24.5,26 L 1344,224 1564,4 q 28,-28 28,-68 0,-42 -39,-81 -39,-39 -81,-39 -40,0 -68,28 L 733,515 Q 557,384 368,384 205,384 102.5,486.5 0,589 0,752 q 0,160 95,313 95,153 248,248 153,95 313,95 163,0 265.5,-102.5 Q 1024,1203 1024,1040 1024,851 893,675 l 355,-355 96,96 q -3,3 -26,24.5 -23,21.5 -40,38.5 -17,17 -33,36.5 -16,19.5 -16,28.5 0,17 49,66 49,49 66,49 13,0 23,-10 6,-6 46,-44.5 40,-38.5 82,-79.5 42,-41 86.5,-86 44.5,-45 73,-78 28.5,-33 28.5,-41 z"
       id="path6"
       inkscape:connector-curvature="0"
       style="fill:#000000" />
  </g>
</svg>
