<?xml version="1.0" encoding="UTF-8" standalone="no"?>
<svg
   xmlns:dc="http://purl.org/dc/elements/1.1/"
   xmlns:cc="http://creativecommons.org/ns#"
   xmlns:rdf="http://www.w3.org/1999/02/22-rdf-syntax-ns#"
   xmlns:svg="http://www.w3.org/2000/svg"
   xmlns="http://www.w3.org/2000/svg"
   xmlns:sodipodi="http://sodipodi.sourceforge.net/DTD/sodipodi-0.dtd"
   xmlns:inkscape="http://www.inkscape.org/namespaces/inkscape"
   width="2048"
   height="2048"
   viewBox="-256 -384 2048 2048"
   id="svg2"
   version="1.1"
   inkscape:version="0.48.4 r9939"
   sodipodi:docname="software-update-available.svg">
  <metadata
     id="metadata12">
    <rdf:RDF>
      <cc:Work
         rdf:about="">
        <dc:format>image/svg+xml</dc:format>
        <dc:type
           rdf:resource="http://purl.org/dc/dcmitype/StillImage" />
        <dc:title></dc:title>
      </cc:Work>
    </rdf:RDF>
  </metadata>
  <defs
     id="defs10" />
  <sodipodi:namedview
     pagecolor="#ffffff"
     bordercolor="#666666"
     borderopacity="1"
     objecttolerance="10"
     gridtolerance="10"
     guidetolerance="10"
     inkscape:pageopacity="0"
     inkscape:pageshadow="2"
     inkscape:window-width="817"
     inkscape:window-height="749"
     id="namedview8"
     showgrid="true"
     inkscape:zoom="0.32593203"
     inkscape:cx="704.75301"
     inkscape:cy="1183.9037"
     inkscape:window-x="859"
     inkscape:window-y="137"
     inkscape:window-maximized="0"
     inkscape:current-layer="svg2">
    <inkscape:grid
       type="xygrid"
       id="grid3774" />
  </sodipodi:namedview>
  <path
     id="path3004"
     style="fill:#000000"
     d="m 1238.2935,596.09288 q 0,-207.23688 -146.053,-353.86672 Q 946.18759,95.596275 739.76618,95.596275 q -206.42133,0 -352.47435,146.629885 -146.05298,146.62984 -146.05298,353.86672 0,207.23687 146.05298,353.86664 146.05302,146.62998 352.47435,146.62998 206.42141,0 352.47432,-146.62998 146.053,-146.62977 146.053,-353.86664 z m 270.0933,-106.97849 v 222 q 0,12 -8,23 -8,11 -20,13 l -184.9999,28 q -19,54 -39,91 35,50.00002 107,138.00011 10,12 10,25 0,13 -9,23 -27,37 -99,108 -72,71 -94,71 -12,0 -26,-9 l -138,-108 q -43.99999,23 -90.99999,38 -16,136 -29,186 -7,28 -36,28 H 629.38689 q -14.00002,0 -24.50002,-8.5 -10.5,-8.5 -11.5,-21.5 l -28,-184 q -48.99999,-16 -89.99999,-37 l -140.99999,107 q -10,9 -25,9 -14,0 -25,-11 -125.99998,-114 -164.99998,-168 -7,-10 -7,-23 0,-12 8,-23 15,-21.00001 51,-66.50007 36,-45.50004 53.99998,-70.50004 -26.99998,-50 -40.99998,-99 l -182.9999979,-27 q -13.0000001,-2 -21.0000001,-12.5 -8,-10.5 -8,-23.5 v -222 q 0,-12 8,-23 8,-11 19.0000001,-13 l 185.9999979,-28 q 14,-46 38.99998,-92 -39.99998,-57 -106.99998,-138.00001 -10,-12 -10,-24 0,-10 9,-23 26,-36 98.5,-107.500005 72.49998,-71.500004 94.49998,-71.500004 13,0 26,10 L 473.38688,82.114374 q 44,-23 90.99999,-37.999999 16,-136.000003 29,-185.999985 7,-28 36.00002,-28 h 222.00002 q 14,0 24.5,8.5 10.5,8.5 11.5,21.5 l 28,183.999985 q 49,15.999999 89.99999,36.999999 l 142,-106.999993 q 9,-9.00001 24,-9.00001 13,0 25,10 129,119.000003 165,170.000009 7,8 7,22 0,12 -8,23 -15,21 -51,66.50001 -36,45.5 -54,70.5 26,50 41,98 l 182.9999,28 q 13,2 21,12.5 8,10.5 8,23.5 z" />
  <g
     transform="matrix(0.5865223,0,0,-0.5865223,288.00164,971.03954)"
     id="g4">
    <path
       style="fill:#000000"
       inkscape:connector-curvature="0"
       d="m 768,1408 q 209,0 385.5,-103 Q 1330,1202 1433,1025.5 1536,849 1536,640 1536,431 1433,254.5 1330,78 1153.5,-25 977,-128 768,-128 559,-128 382.5,-25 206,78 103,254.5 0,431 0,640 0,849 103,1025.5 206,1202 382.5,1305 559,1408 768,1408 z M 896,161 v 190 q 0,14 -9,23.5 -9,9.5 -22,9.5 H 673 q -13,0 -23,-10 -10,-10 -10,-23 V 161 q 0,-13 10,-23 10,-10 23,-10 h 192 q 13,0 22,9.5 9,9.5 9,23.5 z m -2,344 18,621 q 0,12 -10,18 -10,8 -24,8 H 658 q -14,0 -24,-8 -10,-6 -10,-18 l 17,-621 q 0,-10 10,-17.5 10,-7.5 24,-7.5 h 185 q 14,0 23.5,7.5 9.5,7.5 10.5,17.5 z"
       id="path6" />
  </g>
</svg>
