<?xml version="1.0" encoding="UTF-8" standalone="no"?>
<svg
   xmlns:dc="http://purl.org/dc/elements/1.1/"
   xmlns:cc="http://creativecommons.org/ns#"
   xmlns:rdf="http://www.w3.org/1999/02/22-rdf-syntax-ns#"
   xmlns:svg="http://www.w3.org/2000/svg"
   xmlns="http://www.w3.org/2000/svg"
   xmlns:sodipodi="http://sodipodi.sourceforge.net/DTD/sodipodi-0.dtd"
   xmlns:inkscape="http://www.inkscape.org/namespaces/inkscape"
   width="2048"
   height="2048"
   viewBox="-256 -384 2048 2048"
   id="svg2"
   version="1.1"
   inkscape:version="0.48.4 r9939"
   sodipodi:docname="moon-o.svg">
  <metadata
     id="metadata12">
    <rdf:RDF>
      <cc:Work
         rdf:about="">
        <dc:format>image/svg+xml</dc:format>
        <dc:type
           rdf:resource="http://purl.org/dc/dcmitype/StillImage" />
        <dc:title></dc:title>
      </cc:Work>
    </rdf:RDF>
  </metadata>
  <defs
     id="defs10" />
  <sodipodi:namedview
     pagecolor="#ffffff"
     bordercolor="#666666"
     borderopacity="1"
     objecttolerance="10"
     gridtolerance="10"
     guidetolerance="10"
     inkscape:pageopacity="0"
     inkscape:pageshadow="2"
     inkscape:window-width="640"
     inkscape:window-height="480"
     id="namedview8"
     showgrid="false"
     inkscape:zoom="0.11523438"
     inkscape:cx="1024"
     inkscape:cy="1024"
     inkscape:window-x="0"
     inkscape:window-y="0"
     inkscape:window-maximized="0"
     inkscape:current-layer="svg2" />
  <g
     transform="scale(1 -1) translate(0 -1280)"
     id="g4">
    <path
       d="M1262 233q-54 -9 -110 -9q-182 0 -337 90t-245 245t-90 337q0 192 104 357q-201 -60 -328.5 -229t-127.5 -384q0 -130 51 -248.5t136.5 -204t204 -136.5t248.5 -51q144 0 273.5 61.5t220.5 171.5zM1465 318q-94 -203 -283.5 -324.5t-413.5 -121.5q-156 0 -298 61 t-245 164t-164 245t-61 298q0 153 57.5 292.5t156 241.5t235.5 164.5t290 68.5q44 2 61 -39q18 -41 -15 -72q-86 -78 -131.5 -181.5t-45.5 -218.5q0 -148 73 -273t198 -198t273 -73q118 0 228 51q41 18 72 -13q14 -14 17.5 -34t-4.5 -38z"
       fill="black"
       id="path6" />
  </g>
</svg>
