<?xml version="1.0" encoding="UTF-8" standalone="no"?>
<svg
   xmlns:dc="http://purl.org/dc/elements/1.1/"
   xmlns:cc="http://creativecommons.org/ns#"
   xmlns:rdf="http://www.w3.org/1999/02/22-rdf-syntax-ns#"
   xmlns:svg="http://www.w3.org/2000/svg"
   xmlns="http://www.w3.org/2000/svg"
   xmlns:sodipodi="http://sodipodi.sourceforge.net/DTD/sodipodi-0.dtd"
   xmlns:inkscape="http://www.inkscape.org/namespaces/inkscape"
   width="2048"
   height="2048"
   viewBox="-128 -384 2048 2048"
   id="svg2"
   version="1.1"
   inkscape:version="0.48.4 r9939"
   sodipodi:docname="sun-o.svg">
  <metadata
     id="metadata12">
    <rdf:RDF>
      <cc:Work
         rdf:about="">
        <dc:format>image/svg+xml</dc:format>
        <dc:type
           rdf:resource="http://purl.org/dc/dcmitype/StillImage" />
        <dc:title></dc:title>
      </cc:Work>
    </rdf:RDF>
  </metadata>
  <defs
     id="defs10" />
  <sodipodi:namedview
     pagecolor="#ffffff"
     bordercolor="#666666"
     borderopacity="1"
     objecttolerance="10"
     gridtolerance="10"
     guidetolerance="10"
     inkscape:pageopacity="0"
     inkscape:pageshadow="2"
     inkscape:window-width="640"
     inkscape:window-height="480"
     id="namedview8"
     showgrid="false"
     inkscape:zoom="0.11523438"
     inkscape:cx="1024"
     inkscape:cy="1024"
     inkscape:window-x="0"
     inkscape:window-y="0"
     inkscape:window-maximized="0"
     inkscape:current-layer="svg2" />
  <g
     transform="scale(1 -1) translate(0 -1280)"
     id="g4">
    <path
       d="M1472 640q0 117 -45.5 223.5t-123 184t-184 123t-223.5 45.5t-223.5 -45.5t-184 -123t-123 -184t-45.5 -223.5t45.5 -223.5t123 -184t184 -123t223.5 -45.5t223.5 45.5t184 123t123 184t45.5 223.5zM1748 363q-4 -15 -20 -20l-292 -96v-306q0 -16 -13 -26q-15 -10 -29 -4 l-292 94l-180 -248q-10 -13 -26 -13t-26 13l-180 248l-292 -94q-14 -6 -29 4q-13 10 -13 26v306l-292 96q-16 5 -20 20q-5 17 4 29l180 248l-180 248q-9 13 -4 29q4 15 20 20l292 96v306q0 16 13 26q15 10 29 4l292 -94l180 248q9 12 26 12t26 -12l180 -248l292 94 q14 6 29 -4q13 -10 13 -26v-306l292 -96q16 -5 20 -20q5 -16 -4 -29l-180 -248l180 -248q9 -12 4 -29z"
       fill="black"
       id="path6" />
  </g>
</svg>
