<?xml version="1.0" encoding="UTF-8" standalone="no"?>
<svg
   xmlns:dc="http://purl.org/dc/elements/1.1/"
   xmlns:cc="http://creativecommons.org/ns#"
   xmlns:rdf="http://www.w3.org/1999/02/22-rdf-syntax-ns#"
   xmlns:svg="http://www.w3.org/2000/svg"
   xmlns="http://www.w3.org/2000/svg"
   xmlns:sodipodi="http://sodipodi.sourceforge.net/DTD/sodipodi-0.dtd"
   xmlns:inkscape="http://www.inkscape.org/namespaces/inkscape"
   width="2048"
   height="2048"
   viewBox="-256 -384 2048 2048"
   id="svg2"
   version="1.1"
   inkscape:version="0.48.4 r9939"
   sodipodi:docname="face-angry.svg">
  <metadata
     id="metadata12">
    <rdf:RDF>
      <cc:Work
         rdf:about="">
        <dc:format>image/svg+xml</dc:format>
        <dc:type
           rdf:resource="http://purl.org/dc/dcmitype/StillImage" />
      </cc:Work>
    </rdf:RDF>
  </metadata>
  <defs
     id="defs10" />
  <sodipodi:namedview
     pagecolor="#ffffff"
     bordercolor="#666666"
     borderopacity="1"
     objecttolerance="10"
     gridtolerance="10"
     guidetolerance="10"
     inkscape:pageopacity="0"
     inkscape:pageshadow="2"
     inkscape:window-width="1859"
     inkscape:window-height="1048"
     id="namedview8"
     showgrid="false"
     inkscape:zoom="0.16296602"
     inkscape:cx="984.10655"
     inkscape:cy="1887.7276"
     inkscape:window-x="-8"
     inkscape:window-y="-3"
     inkscape:window-maximized="1"
     inkscape:current-layer="g4"
     showguides="true"
     inkscape:guide-bbox="true" />
  <g
     transform="scale(1 -1) translate(0 -1280)"
     id="g4">
    <path
       style="fill:#000000"
       d="M 1024,256 C 884.66667,256 756.16667,290.3333 638.5,359 520.83333,427.6667 427.66667,520.8333 359,638.5 290.33333,756.16667 256,884.66667 256,1024 c 0,139.3333 34.33333,267.8333 103,385.5 68.66667,117.6667 161.83333,210.8333 279.5,279.5 117.66667,68.6667 246.16667,103 385.5,103 139.3333,0 267.8333,-34.3333 385.5,-103 117.6667,-68.6667 210.8333,-161.8333 279.5,-279.5 68.6667,-117.6667 103,-246.1667 103,-385.5 0,-139.33333 -34.3333,-267.83333 -103,-385.5 C 1620.3333,520.8333 1527.1667,427.6667 1409.5,359 1291.8333,290.3333 1163.3333,256 1024,256 z m 0,128 c 86.6667,0 169.5,17 248.5,51 79,34 147,79.5 204,136.5 57,57 102.5,125 136.5,204 34,79 51,161.83333 51,248.5 0,86.6667 -17,169.5 -51,248.5 -34,79 -79.5,147 -136.5,204 -57,57 -125,102.5 -204,136.5 -79,34 -161.8333,51 -248.5,51 -86.66667,0 -169.5,-17 -248.5,-51 -79,-34 -147,-79.5 -204,-136.5 -57,-57 -102.5,-125 -136.5,-204 -34,-79 -51,-161.8333 -51,-248.5 0,-86.66667 17,-169.5 51,-248.5 34,-79 79.5,-147 136.5,-204 57,-57 125,-102.5 204,-136.5 79,-34 161.83333,-51 248.5,-51 z M 721.40625,642.9375 c -2.64378,0.0364 -5.34012,0.46984 -8.09375,1.3125 -7.34313,2.2472 -12.76338,6.65705 -16.25,13.21875 -3.48665,6.5618 -4.12215,13.50073 -1.875,20.84375 2.24715,7.34313 6.65695,12.76333 13.21875,16.25 l 36.4375,19.34375 C 719.3033,718.27935 696.85,730.15 677.5,749.5 c -25,25 -37.5,55.16667 -37.5,90.5 0,35.33333 12.5,65.5 37.5,90.5 25,25 55.16667,39.5 90.5,39.5 35.33333,0 65.5,-14.5 90.5,-39.5 25,-25 37.5,-55.16667 37.5,-90.5 0,-18.49884 -3.42858,-35.5836 -10.28125,-51.25 l 64.96875,34.53125 c 6.562,3.4868 13.5318,4.1229 20.875,1.875 7.3431,-2.247 12.73215,-6.65685 16.21875,-13.21875 3.4866,-6.5617 4.1218,-13.50065 1.875,-20.84375 -2.2474,-7.3431 -6.65695,-12.7634 -13.21875,-16.25 l -242.28125,-128.75 c -4.10114,-2.17919 -8.3437,-3.21689 -12.75,-3.15625 z m 596.71875,0 c -3.9382,0.14687 -7.7464,1.19493 -11.4375,3.15625 l -242.2813,128.75 c -6.5617,3.48667 -10.9716,8.90687 -13.2187,16.25 -2.2472,7.34301 -1.6117,14.28196 1.875,20.84375 3.4866,6.56171 8.9069,10.97148 16.25,13.21875 7.343,2.24711 14.2819,1.61165 20.8437,-1.875 l 75.9063,-40.3125 C 1156.7052,800.71777 1152,820.3833 1152,842 c 0,35.33333 12.5,65.5 37.5,90.5 25,25 55.1667,37.5 90.5,37.5 35.3333,0 65.5,-12.5 90.5,-37.5 25,-25 37.5,-55.16667 37.5,-90.5 0,-35.33333 -12.5,-65.5 -37.5,-90.5 -21.5147,-21.51472 -46.8635,-33.75061 -76.0312,-36.75 l 37.9687,-20.1875 c 6.5618,-3.4866 10.9714,-8.9069 13.2187,-16.25 2.2468,-7.3431 1.6116,-14.28205 -1.875,-20.84375 -3.4866,-6.5619 -8.8756,-10.97175 -16.2187,-13.21875 -3.2126,-0.98346 -6.3744,-1.42673 -9.4375,-1.3125 z M 784,1192 c -40.85196,1.4919 -86.16378,33.4393 -125,49 -12.66667,12.6667 -19,27.6667 -19,45 0,17.3333 6.33333,32.3333 19,45 12.66667,12.6667 28.7703,25.0861 45,19 0,0 51.51999,-30 80,-30 l 80,0 80,0 80,0 80,0 80,0 80,0 c 28.4711,-0.7118 80,30 80,30 16.2297,6.0862 32.3333,-6.3333 45,-19 12.6667,-12.6667 19,-27.6667 19,-45 0,-17.3333 -6.3333,-32.3333 -19,-45 -23.9785,-22.8956 -85.7556,-41.8881 -125,-49 l -80,0 -80,0 -80,0 -80,0 -80,0 z"
       transform="matrix(1,0,0,-1,-256,1664)"
       id="path6"
       inkscape:connector-curvature="0"
       sodipodi:nodetypes="ssssssssssssssssssssssssssssssssssccsssssscccccccsscccscccsssssscccccsccsscscccccccsscccccccc" />
  </g>
</svg>
