<?xml version="1.0" encoding="UTF-8" standalone="no"?>
<svg
   xmlns:dc="http://purl.org/dc/elements/1.1/"
   xmlns:cc="http://creativecommons.org/ns#"
   xmlns:rdf="http://www.w3.org/1999/02/22-rdf-syntax-ns#"
   xmlns:svg="http://www.w3.org/2000/svg"
   xmlns="http://www.w3.org/2000/svg"
   xmlns:sodipodi="http://sodipodi.sourceforge.net/DTD/sodipodi-0.dtd"
   xmlns:inkscape="http://www.inkscape.org/namespaces/inkscape"
   width="2048"
   height="2048"
   viewBox="-256 -384 2048 2048"
   id="svg2"
   version="1.1"
   inkscape:version="0.48.4 r9939"
   sodipodi:docname="face-monkey.svg">
  <metadata
     id="metadata12">
    <rdf:RDF>
      <cc:Work
         rdf:about="">
        <dc:format>image/svg+xml</dc:format>
        <dc:type
           rdf:resource="http://purl.org/dc/dcmitype/StillImage" />
        <dc:title />
      </cc:Work>
    </rdf:RDF>
  </metadata>
  <defs
     id="defs10" />
  <sodipodi:namedview
     pagecolor="#ffffff"
     bordercolor="#666666"
     borderopacity="1"
     objecttolerance="10"
     gridtolerance="10"
     guidetolerance="10"
     inkscape:pageopacity="0"
     inkscape:pageshadow="2"
     inkscape:window-width="1859"
     inkscape:window-height="1048"
     id="namedview8"
     showgrid="false"
     inkscape:zoom="0.11313708"
     inkscape:cx="453.32887"
     inkscape:cy="973.16565"
     inkscape:window-x="-8"
     inkscape:window-y="-3"
     inkscape:window-maximized="1"
     inkscape:current-layer="svg2" />
  <g
     transform="scale(1 -1) translate(0 -1280)"
     id="g4">
    <path
       style="fill:#000000"
       d="M 1021.9375 288.78125 C 914.88873 288.78125 816.15245 325.583 725.75 399.1875 C 643.70655 465.98622 577.16213 554.41058 526.125 664.46875 C 518.28213 648.4103 508.70421 633.26804 497.34375 619.03125 C 460.65851 573.05785 416.37968 550.0625 364.53125 550.0625 C 312.68283 550.0625 268.43524 573.05785 231.75 619.03125 C 195.06476 665.00477 176.71875 720.46165 176.71875 785.4375 C 176.71875 850.41335 195.06476 905.90134 231.75 951.875 C 268.43524 997.84835 312.68283 1020.8438 364.53125 1020.8438 C 390.49427 1020.8438 414.55488 1015.0594 436.71875 1003.5312 C 435.14746 1020.8624 433.9593 1038.3619 433.15625 1056.0312 C 314.33764 1155.4817 309.79936 1301.1902 359 1385.5 C 427.66667 1503.1667 520.83333 1596.3333 638.5 1665 C 756.16667 1733.6667 884.66667 1768 1024 1768 C 1163.3333 1768 1291.8333 1733.6667 1409.5 1665 C 1527.1667 1596.3333 1620.3333 1503.1667 1689 1385.5 C 1737.1025 1303.072 1729.3985 1169.1685 1611.2188 1068.7812 C 1610.4689 1047.277 1609.1586 1026.0079 1607.2812 1005 C 1628.6265 1015.5408 1651.705 1020.8438 1676.5312 1020.8438 C 1728.3797 1020.8438 1772.6584 997.84835 1809.3438 951.875 C 1846.0289 905.90134 1864.375 850.41335 1864.375 785.4375 C 1864.375 720.46165 1846.029 665.00477 1809.3438 619.03125 C 1772.6586 573.05785 1728.3797 550.0625 1676.5312 550.0625 C 1624.6828 550.0625 1580.4353 573.05785 1543.75 619.03125 C 1533.063 632.42414 1523.9491 646.62002 1516.375 661.625 C 1465.514 552.89341 1399.4568 465.40682 1318.125 399.1875 C 1227.7225 325.583 1128.9863 288.78125 1021.9375 288.78125 z M 1021.9375 425.96875 C 1088.5229 425.96875 1152.1486 444.21135 1212.8438 480.65625 C 1273.5389 517.10115 1325.8011 565.86995 1369.5938 626.96875 C 1413.3865 688.06758 1448.3467 760.94418 1474.4688 845.625 C 1490.2944 896.92777 1501.3246 949.74342 1507.5625 1004.0625 C 1474.5571 988.92831 1437.1024 975.73883 1394.8125 965.0625 C 1394.8125 965.0625 1225.6838 1003.3547 1265.6875 1015.9688 C 1388.2199 1054.6058 1584.3107 1129.0208 1613 1248.5 C 1632.1032 1328.057 1533.5 1395.5 1476.5 1452.5 C 1419.5 1509.5 1351.5 1555 1272.5 1589 C 1193.5 1623 1110.6667 1640 1024 1640 C 937.33333 1640 854.5 1623 775.5 1589 C 696.5 1555 628.5 1509.5 571.5 1452.5 C 514.5 1395.5 422.28355 1329.3241 435 1248.5 C 455.12977 1120.5578 655.2295 1046.0844 739.78125 1007.5312 C 752.12865 1001.9012 631.59375 966.375 631.59375 966.375 C 596.7885 973.69047 565.4859 983.24245 537.4375 994.625 C 543.83754 943.62411 554.49929 893.94961 569.40625 845.625 C 595.52821 760.94418 630.48855 688.06758 674.28125 626.96875 C 718.07392 565.86995 770.30489 517.10115 831 480.65625 C 891.69514 444.21135 955.35214 425.96875 1021.9375 425.96875 z M 1023.9062 508.90625 C 982.54031 508.90625 945.39739 519.7844 912.5 541.5625 C 879.60273 563.3405 857.11396 592.04625 845.0625 627.65625 C 842.45677 635.01385 843.12266 642.1464 847.03125 649.0625 C 850.93985 655.9783 856.95088 660.61445 865.09375 662.96875 C 873.23673 665.32314 881.24532 664.71896 889.0625 661.1875 C 896.87968 657.6557 902.08177 652.05815 904.6875 644.40625 C 912.83048 620.86245 927.88917 601.8177 949.875 587.25 C 971.86084 572.6821 996.54612 565.40625 1023.9062 565.40625 C 1051.2664 565.40625 1075.9204 572.6821 1097.9062 587.25 C 1119.8921 601.8177 1134.9509 620.86245 1143.0938 644.40625 C 1145.6995 652.05815 1150.8457 657.6557 1158.5 661.1875 C 1166.1543 664.71896 1174.0446 665.32314 1182.1875 662.96875 C 1190.6562 660.61445 1196.8414 655.9783 1200.75 649.0625 C 1204.6586 642.1464 1205.3246 635.01385 1202.7188 627.65625 C 1190.6673 592.04625 1168.1786 563.3405 1135.2812 541.5625 C 1102.3839 519.7844 1065.2723 508.90625 1023.9062 508.90625 z M 364.53125 660.34375 C 392.08563 660.34375 415.62896 672.59905 435.125 697.03125 C 454.62104 721.46335 464.375 750.9067 464.375 785.4375 C 464.375 819.9684 454.62104 849.44271 435.125 873.875 C 415.62896 898.30713 392.08563 910.5625 364.53125 910.5625 C 336.97687 910.5625 313.46479 898.30713 293.96875 873.875 C 274.4727 849.44271 264.71875 819.9684 264.71875 785.4375 C 264.71875 750.9067 274.4727 721.46335 293.96875 697.03125 C 313.46479 672.59905 336.97687 660.34375 364.53125 660.34375 z M 1676.5312 660.34375 C 1704.0856 660.34375 1727.629 672.59905 1747.125 697.03125 C 1766.6211 721.46335 1776.375 750.9067 1776.375 785.4375 C 1776.375 819.9684 1766.6211 849.44271 1747.125 873.875 C 1727.629 898.30713 1704.0857 910.5625 1676.5312 910.5625 C 1648.9769 910.5625 1625.4648 898.30713 1605.9688 873.875 C 1586.4726 849.44271 1576.7188 819.9684 1576.7188 785.4375 C 1576.7188 750.9067 1586.4726 721.46335 1605.9688 697.03125 C 1625.4648 672.59905 1648.9769 660.34375 1676.5312 660.34375 z M 780.28125 697.34375 C 747.48871 697.34375 719.48352 708.58292 696.28125 731.09375 C 673.07898 753.60459 661.46875 780.77844 661.46875 812.59375 C 661.46875 844.40907 673.07898 871.58292 696.28125 894.09375 C 719.48352 916.60459 747.48871 927.84375 780.28125 927.84375 C 813.07379 927.84375 841.04773 916.60459 864.25 894.09375 C 887.45227 871.58292 899.0625 844.40907 899.0625 812.59375 C 899.0625 780.77844 887.45227 753.60459 864.25 731.09375 C 841.04773 708.58292 813.07379 697.34375 780.28125 697.34375 z M 1255.4688 697.34375 C 1222.6762 697.34375 1194.671 708.58292 1171.4688 731.09375 C 1148.2665 753.60459 1136.6562 780.77844 1136.6562 812.59375 C 1136.6563 844.40907 1148.2665 871.58292 1171.4688 894.09375 C 1194.671 916.60459 1222.6762 927.84375 1255.4688 927.84375 C 1288.2613 927.84375 1316.2352 916.60459 1339.4375 894.09375 C 1362.6397 871.58292 1374.25 844.40907 1374.25 812.59375 C 1374.25 780.77844 1362.6397 753.60459 1339.4375 731.09375 C 1316.2352 708.58292 1288.2613 697.34375 1255.4688 697.34375 z M 734.375 1129.375 C 728.70495 1129.4876 722.95682 1130.4491 717.15625 1132.25 C 701.06935 1137.0523 689.33098 1146.5182 681.90625 1160.625 C 674.48152 1174.7318 673.23768 1189.274 678.1875 1204.2812 C 701.08041 1276.9162 743.75855 1335.4536 806.25 1379.875 C 868.74145 1424.2964 939.29664 1446.5 1017.875 1446.5 C 1096.4534 1446.5 1166.9773 1424.2964 1229.4688 1379.875 C 1291.9602 1335.4536 1334.6383 1276.9162 1357.5312 1204.2812 C 1362.4811 1189.274 1361.2685 1174.7318 1353.8438 1160.625 C 1346.4189 1146.5182 1334.9682 1137.0523 1319.5 1132.25 C 1304.0318 1127.4477 1288.8808 1128.6403 1274.0312 1135.8438 C 1259.1818 1143.0472 1249.2623 1154.455 1244.3125 1170.0625 C 1228.8443 1218.0856 1200.2328 1256.9732 1158.4688 1286.6875 C 1116.7047 1316.4018 1069.8481 1331.25 1017.875 1331.25 C 965.90191 1331.25 919.01409 1316.4018 877.25 1286.6875 C 835.48591 1256.9732 806.87443 1218.0856 791.40625 1170.0625 C 786.45643 1154.455 776.72759 1143.0472 762.1875 1135.8438 C 753.09994 1131.3416 743.82509 1129.1874 734.375 1129.375 z "
       id="path6"
       transform="matrix(1,0,0,-1,-256,1664)" />
  </g>
</svg>
