<?xml version="1.0" encoding="UTF-8" standalone="no"?>
<svg
   xmlns:dc="http://purl.org/dc/elements/1.1/"
   xmlns:cc="http://creativecommons.org/ns#"
   xmlns:rdf="http://www.w3.org/1999/02/22-rdf-syntax-ns#"
   xmlns:svg="http://www.w3.org/2000/svg"
   xmlns="http://www.w3.org/2000/svg"
   xmlns:sodipodi="http://sodipodi.sourceforge.net/DTD/sodipodi-0.dtd"
   xmlns:inkscape="http://www.inkscape.org/namespaces/inkscape"
   width="2048"
   height="2048"
   viewBox="-256 -384 2048 2048"
   id="svg2"
   version="1.1"
   inkscape:version="0.48.4 r9939"
   sodipodi:docname="face-laugh.svg">
  <metadata
     id="metadata12">
    <rdf:RDF>
      <cc:Work
         rdf:about="">
        <dc:format>image/svg+xml</dc:format>
        <dc:type
           rdf:resource="http://purl.org/dc/dcmitype/StillImage" />
        <dc:title></dc:title>
      </cc:Work>
    </rdf:RDF>
  </metadata>
  <defs
     id="defs10" />
  <sodipodi:namedview
     pagecolor="#ffffff"
     bordercolor="#666666"
     borderopacity="1"
     objecttolerance="10"
     gridtolerance="10"
     guidetolerance="10"
     inkscape:pageopacity="0"
     inkscape:pageshadow="2"
     inkscape:window-width="1859"
     inkscape:window-height="1048"
     id="namedview8"
     showgrid="false"
     inkscape:zoom="0.23046875"
     inkscape:cx="1024"
     inkscape:cy="1024"
     inkscape:window-x="-8"
     inkscape:window-y="-3"
     inkscape:window-maximized="1"
     inkscape:current-layer="svg2" />
  <g
     transform="scale(1 -1) translate(0 -1280)"
     id="g4">
    <path
       d="M 1154,481 C 1129.3333,400.33333 1063.3333,315.33333 996,266 928.66667,216.66667 852.66667,192 768,192 c -84.66667,0 -160.66667,24.66667 -228,74 -67.33333,49.33333 -133.33333,134.33333 -158,215 -5.33333,16.66667 -4,32.83333 4,48.5 8,15.66667 20.66667,26.16667 38,31.5 16.66667,5.33333 32.83333,4 48.5,-4 15.66667,-8 16.60959,-31.00214 31.5,-38 159.28678,-74.85801 368.42439,-74.24032 528,0 15.0143,6.98519 16,30 32,38 16,8 32.3333,9.33333 49,4 16.6667,-5.33333 29,-15.83333 37,-31.5 8,-15.66667 9.3333,-31.83333 4,-48.5 z M 640,896 c 0,-35.33333 -12.5,-65.5 -37.5,-90.5 -25,-25 -55.16667,-37.5 -90.5,-37.5 -35.33333,0 -65.5,12.5 -90.5,37.5 -25,25 -37.5,55.16667 -37.5,90.5 0,35.33333 12.5,65.5 37.5,90.5 25,25 55.16667,37.5 90.5,37.5 35.33333,0 65.5,-12.5 90.5,-37.5 25,-25 37.5,-55.16667 37.5,-90.5 z m 512,0 c 0,-35.33333 -12.5,-65.5 -37.5,-90.5 -25,-25 -55.1667,-37.5 -90.5,-37.5 -35.33333,0 -65.5,12.5 -90.5,37.5 -25,25 -37.5,55.16667 -37.5,90.5 0,35.33333 12.5,65.5 37.5,90.5 25,25 55.16667,37.5 90.5,37.5 35.3333,0 65.5,-12.5 90.5,-37.5 25,-25 37.5,-55.16667 37.5,-90.5 z m 256,-256 c 0,86.66667 -17,169.5 -51,248.5 -34,79 -79.5,147 -136.5,204 -57,57 -125,102.5 -204,136.5 -79,34 -161.83333,51 -248.5,51 -86.66667,0 -169.5,-17 -248.5,-51 -79,-34 -147,-79.5 -204,-136.5 -57,-57 -102.5,-125 -136.5,-204 -34,-79 -51,-161.83333 -51,-248.5 0,-86.66667 17,-169.5 51,-248.5 34,-79 79.5,-147 136.5,-204 57,-57 125,-102.5 204,-136.5 79,-34 161.83333,-51 248.5,-51 86.66667,0 169.5,17 248.5,51 79,34 147,79.5 204,136.5 57,57 102.5,125 136.5,204 34,79 51,161.83333 51,248.5 z m 128,0 C 1536,500.66667 1501.6667,372.16667 1433,254.5 1364.3333,136.83333 1271.1667,43.666667 1153.5,-25 1035.8333,-93.666667 907.33333,-128 768,-128 628.66667,-128 500.16667,-93.666667 382.5,-25 264.83333,43.666667 171.66667,136.83333 103,254.5 34.333333,372.16667 0,500.66667 0,640 c 0,139.33333 34.333333,267.83333 103,385.5 68.66667,117.6667 161.83333,210.8333 279.5,279.5 117.66667,68.6667 246.16667,103 385.5,103 139.33333,0 267.8333,-34.3333 385.5,-103 117.6667,-68.6667 210.8333,-161.8333 279.5,-279.5 68.6667,-117.66667 103,-246.16667 103,-385.5 z"
       id="path6"
       inkscape:connector-curvature="0"
       style="fill:#000000"
       sodipodi:nodetypes="cssscscsaassscssssssssssssssssssssssssssssssssssssssssssssssss" />
  </g>
</svg>
