<?xml version="1.0" encoding="UTF-8" standalone="no"?>
<svg
   xmlns:dc="http://purl.org/dc/elements/1.1/"
   xmlns:cc="http://creativecommons.org/ns#"
   xmlns:rdf="http://www.w3.org/1999/02/22-rdf-syntax-ns#"
   xmlns:svg="http://www.w3.org/2000/svg"
   xmlns="http://www.w3.org/2000/svg"
   xmlns:sodipodi="http://sodipodi.sourceforge.net/DTD/sodipodi-0.dtd"
   xmlns:inkscape="http://www.inkscape.org/namespaces/inkscape"
   width="2048"
   height="2048"
   viewBox="-256 -384 2048 2048"
   id="svg2"
   version="1.1"
   inkscape:version="0.48.4 r9939"
   sodipodi:docname="face-embarrassed.svg">
  <metadata
     id="metadata12">
    <rdf:RDF>
      <cc:Work
         rdf:about="">
        <dc:format>image/svg+xml</dc:format>
        <dc:type
           rdf:resource="http://purl.org/dc/dcmitype/StillImage" />
        <dc:title></dc:title>
      </cc:Work>
    </rdf:RDF>
  </metadata>
  <defs
     id="defs10" />
  <sodipodi:namedview
     pagecolor="#ffffff"
     bordercolor="#666666"
     borderopacity="1"
     objecttolerance="10"
     gridtolerance="10"
     guidetolerance="10"
     inkscape:pageopacity="0"
     inkscape:pageshadow="2"
     inkscape:window-width="1859"
     inkscape:window-height="1048"
     id="namedview8"
     showgrid="false"
     inkscape:zoom="0.23046875"
     inkscape:cx="753.07746"
     inkscape:cy="1044.7673"
     inkscape:window-x="-8"
     inkscape:window-y="-3"
     inkscape:window-maximized="1"
     inkscape:current-layer="svg2"
     showguides="true"
     inkscape:guide-bbox="true" />
  <g
     transform="scale(1 -1) translate(0 -1280)"
     id="g4">
    <path
       style="fill:#000000"
       d="M 1024 256 C 884.66667 256 756.16667 290.3333 638.5 359 C 520.83333 427.6667 427.66667 520.8333 359 638.5 C 290.33333 756.16667 256 884.66667 256 1024 C 256 1163.3333 290.33333 1291.8333 359 1409.5 C 427.66667 1527.1667 520.83333 1620.3333 638.5 1689 C 756.16667 1757.6667 884.66667 1792 1024 1792 C 1163.3333 1792 1291.8333 1757.6667 1409.5 1689 C 1527.1667 1620.3333 1620.3333 1527.1667 1689 1409.5 C 1757.6667 1291.8333 1792 1163.3333 1792 1024 C 1792 884.66667 1757.6667 756.16667 1689 638.5 C 1620.3333 520.8333 1527.1667 427.6667 1409.5 359 C 1291.8333 290.3333 1163.3333 256 1024 256 z M 1024 384 C 1110.6667 384 1193.5 401 1272.5 435 C 1351.5 469 1419.5 514.5 1476.5 571.5 C 1533.5 628.5 1579 696.5 1613 775.5 C 1623.8163 800.632 1632.9059 826.1546 1640.2812 852.0625 C 1616.5306 842.3534 1590.9845 837.5 1563.625 837.5 C 1502.9641 837.5 1451.1704 861.36508 1408.25 909.09375 C 1365.3296 956.82238 1343.875 1014.4185 1343.875 1081.875 C 1343.875 1149.3315 1365.3296 1206.9276 1408.25 1254.6562 C 1451.1704 1302.3849 1502.9641 1326.25 1563.625 1326.25 C 1571.8791 1326.25 1579.9494 1325.7899 1587.875 1324.9062 C 1557.589 1381.9781 1520.4765 1432.5235 1476.5 1476.5 C 1419.5 1533.5 1351.5 1579 1272.5 1613 C 1193.5 1647 1110.6667 1664 1024 1664 C 937.33333 1664 854.5 1647 775.5 1613 C 696.5 1579 628.5 1533.5 571.5 1476.5 C 527.41885 1432.4189 490.23166 1381.7388 459.90625 1324.5 C 468.93185 1325.66 478.16825 1326.25 487.625 1326.25 C 548.28583 1326.25 600.07961 1302.3849 643 1254.6562 C 685.92041 1206.9276 707.375 1149.3315 707.375 1081.875 C 707.375 1014.4185 685.92041 956.82238 643 909.09375 C 600.07961 861.36508 548.28583 837.5 487.625 837.5 C 458.84802 837.5 432.0658 842.88379 407.28125 853.625 C 414.73443 827.17948 423.9659 801.13806 435 775.5 C 469 696.5 514.5 628.5 571.5 571.5 C 628.5 514.5 696.5 469 775.5 435 C 854.5 401 937.33333 384 1024 384 z M 768 640 C 732.66667 640 702.5 652.5 677.5 677.5 C 652.5 702.5 640 732.66667 640 768 C 640 803.33333 652.5 833.5 677.5 858.5 C 702.5 883.5 732.66667 896 768 896 C 803.33333 896 833.5 883.5 858.5 858.5 C 883.5 833.5 896 803.33333 896 768 C 896 732.66667 883.5 702.5 858.5 677.5 C 833.5 652.5 803.33333 640 768 640 z M 1280 640 C 1244.6667 640 1214.5 652.5 1189.5 677.5 C 1164.5 702.5 1152 732.66667 1152 768 C 1152 803.33333 1164.5 833.5 1189.5 858.5 C 1214.5 883.5 1244.6667 896 1280 896 C 1315.3333 896 1345.5 883.5 1370.5 858.5 C 1395.5 833.5 1408 803.33333 1408 768 C 1408 732.66667 1395.5 702.5 1370.5 677.5 C 1345.5 652.5 1315.3333 640 1280 640 z M 1232.7812 1205.5625 C 1231.2091 1205.6089 1229.6069 1205.7579 1228 1206 L 790 1272 C 772.86017 1274.5827 757.66667 1278.3333 745 1291 C 732.33333 1303.6667 726 1318.6667 726 1336 C 726 1353.3333 732.33333 1368.3333 745 1381 C 757.66667 1393.6667 772.86017 1402.5827 790 1400 L 1228 1334 C 1245.1398 1331.4173 1260.3333 1327.6667 1273 1315 C 1285.6667 1302.3333 1292 1287.3333 1292 1270 C 1292 1252.6667 1285.6667 1237.6667 1273 1225 C 1261.5208 1213.5208 1247.9789 1205.1141 1232.7812 1205.5625 z "
       transform="matrix(1,0,0,-1,-256,1664)"
       id="path6" />
  </g>
</svg>
