<?xml version="1.0" encoding="UTF-8" standalone="no"?>
<svg
   xmlns:dc="http://purl.org/dc/elements/1.1/"
   xmlns:cc="http://creativecommons.org/ns#"
   xmlns:rdf="http://www.w3.org/1999/02/22-rdf-syntax-ns#"
   xmlns:svg="http://www.w3.org/2000/svg"
   xmlns="http://www.w3.org/2000/svg"
   xmlns:sodipodi="http://sodipodi.sourceforge.net/DTD/sodipodi-0.dtd"
   xmlns:inkscape="http://www.inkscape.org/namespaces/inkscape"
   width="2048"
   height="2048"
   viewBox="-256 -384 2048 2048"
   id="svg2"
   version="1.1"
   inkscape:version="0.48.4 r9939"
   sodipodi:docname="face-surprise.svg">
  <metadata
     id="metadata12">
    <rdf:RDF>
      <cc:Work
         rdf:about="">
        <dc:format>image/svg+xml</dc:format>
        <dc:type
           rdf:resource="http://purl.org/dc/dcmitype/StillImage" />
        <dc:title></dc:title>
      </cc:Work>
    </rdf:RDF>
  </metadata>
  <defs
     id="defs10" />
  <sodipodi:namedview
     pagecolor="#ffffff"
     bordercolor="#666666"
     borderopacity="1"
     objecttolerance="10"
     gridtolerance="10"
     guidetolerance="10"
     inkscape:pageopacity="0"
     inkscape:pageshadow="2"
     inkscape:window-width="1859"
     inkscape:window-height="1048"
     id="namedview8"
     showgrid="false"
     inkscape:zoom="0.22627417"
     inkscape:cx="1537.1501"
     inkscape:cy="601.85873"
     inkscape:window-x="-8"
     inkscape:window-y="-3"
     inkscape:window-maximized="1"
     inkscape:current-layer="g4"
     showguides="true"
     inkscape:guide-bbox="true" />
  <g
     transform="scale(1 -1) translate(0 -1280)"
     id="g4">
    <path
       style="fill:#000000"
       d="M 1024 256 C 884.66667 256 756.16667 290.3333 638.5 359 C 520.83333 427.6667 427.66667 520.8333 359 638.5 C 290.33333 756.16667 256 884.66667 256 1024 C 256 1163.3333 290.33333 1291.8333 359 1409.5 C 427.66667 1527.1667 520.83333 1620.3333 638.5 1689 C 756.16667 1757.6667 884.66667 1792 1024 1792 C 1163.3333 1792 1291.8333 1757.6667 1409.5 1689 C 1527.1667 1620.3333 1620.3333 1527.1667 1689 1409.5 C 1757.6667 1291.8333 1792 1163.3333 1792 1024 C 1792 884.66667 1757.6667 756.16667 1689 638.5 C 1620.3333 520.8333 1527.1667 427.6667 1409.5 359 C 1291.8333 290.3333 1163.3333 256 1024 256 z M 1024 384 C 1110.6667 384 1193.5 401 1272.5 435 C 1351.5 469 1419.5 514.5 1476.5 571.5 C 1533.5 628.5 1579 696.5 1613 775.5 C 1647 854.5 1664 937.33333 1664 1024 C 1664 1110.6667 1647 1193.5 1613 1272.5 C 1579 1351.5 1533.5 1419.5 1476.5 1476.5 C 1419.5 1533.5 1351.5 1579 1272.5 1613 C 1193.5 1647 1110.6667 1664 1024 1664 C 937.33333 1664 854.5 1647 775.5 1613 C 696.5 1579 628.5 1533.5 571.5 1476.5 C 514.5 1419.5 469 1351.5 435 1272.5 C 401 1193.5 384 1110.6667 384 1024 C 384 937.33333 401 854.5 435 775.5 C 469 696.5 514.5 628.5 571.5 571.5 C 628.5 514.5 696.5 469 775.5 435 C 854.5 401 937.33333 384 1024 384 z M 739.21875 577.71875 C 672.59229 577.71875 615.70397 601.2962 568.5625 648.4375 C 521.42128 695.57883 497.84361 752.46749 497.84375 819.09375 C 497.84375 885.72003 521.42128 942.60877 568.5625 989.75 C 615.70397 1036.8913 672.59229 1060.4375 739.21875 1060.4375 C 805.84492 1060.4375 862.73387 1036.8913 909.875 989.75 C 957.01614 942.60877 980.59375 885.72003 980.59375 819.09375 C 980.59375 752.46749 957.01614 695.57883 909.875 648.4375 C 862.73387 601.2962 805.84503 577.71875 739.21875 577.71875 z M 1303.6875 577.71875 C 1237.0611 577.71875 1180.204 601.2962 1133.0625 648.4375 C 1085.9213 695.57883 1062.3436 752.46749 1062.3438 819.09375 C 1062.3438 885.72003 1085.9213 942.60877 1133.0625 989.75 C 1180.204 1036.8913 1237.0611 1060.4375 1303.6875 1060.4375 C 1370.3137 1060.4375 1427.2026 1036.8913 1474.3438 989.75 C 1521.485 942.60877 1545.0625 885.72003 1545.0625 819.09375 C 1545.0625 752.46749 1521.4849 695.57883 1474.3438 648.4375 C 1427.2026 601.2962 1370.3138 577.71875 1303.6875 577.71875 z M 743.03125 680.0625 C 781.40541 680.0625 814.16145 693.66094 841.3125 720.8125 C 868.46443 747.96415 882.03125 780.71944 882.03125 819.09375 C 882.03125 857.46806 868.46453 890.2546 841.3125 917.40625 C 814.16156 944.55788 781.40541 958.125 743.03125 958.125 C 704.65683 958.125 671.90162 944.55788 644.75 917.40625 C 617.5984 890.2546 604.03125 857.46806 604.03125 819.09375 C 604.03125 780.71944 617.5984 747.96415 644.75 720.8125 C 671.90162 693.66094 704.65683 680.0625 743.03125 680.0625 z M 1307.5312 680.0625 C 1345.9054 680.0625 1378.6303 693.66094 1405.7812 720.8125 C 1432.9333 747.96415 1446.5 780.71944 1446.5 819.09375 C 1446.5 857.46806 1432.9334 890.2546 1405.7812 917.40625 C 1378.6303 944.55788 1345.9054 958.125 1307.5312 958.125 C 1269.1569 958.125 1236.3704 944.55788 1209.2188 917.40625 C 1182.0672 890.2546 1168.5 857.46806 1168.5 819.09375 C 1168.5 780.71944 1182.0671 747.96415 1209.2188 720.8125 C 1236.3704 693.66094 1269.1569 680.0625 1307.5312 680.0625 z M 745.84375 759.90625 C 729.75838 759.90625 716.00602 765.61885 704.625 777 C 693.24385 788.38116 687.59375 802.10222 687.59375 818.1875 C 687.59375 834.27279 693.24385 847.99392 704.625 859.375 C 716.00602 870.75609 729.75838 876.46875 745.84375 876.46875 C 761.92878 876.46875 775.65048 870.75609 787.03125 859.375 C 798.41236 847.99392 804.125 834.27278 804.125 818.1875 C 804.125 802.10222 798.41236 788.38116 787.03125 777 C 775.65048 765.61885 761.92878 759.90625 745.84375 759.90625 z M 1310.3438 759.90625 C 1294.2585 759.90625 1280.5061 765.61885 1269.125 777 C 1257.7439 788.38116 1252.0625 802.10222 1252.0625 818.1875 C 1252.0625 834.27279 1257.7439 847.99392 1269.125 859.375 C 1280.5061 870.75609 1294.2585 876.46875 1310.3438 876.46875 C 1326.4289 876.46875 1340.1191 870.75609 1351.5 859.375 C 1362.881 847.99392 1368.5937 834.27278 1368.5938 818.1875 C 1368.5938 802.10222 1362.881 788.38116 1351.5 777 C 1340.1191 765.61885 1326.4289 759.90625 1310.3438 759.90625 z M 697.65625 1193.5625 C 683.09177 1193.7175 670.08334 1201.9167 659 1213 C 646.33333 1225.6667 640 1240.6667 640 1258 C 640 1275.3333 646.33333 1290.3333 659 1303 C 671.66667 1315.6667 686.85844 1319.4288 704 1322 L 784 1334 L 864 1334 L 944 1334 L 1024 1334 L 1104 1334 L 1184 1334 L 1264 1334 L 1344 1322 C 1361.1415 1319.4288 1376.3333 1315.6667 1389 1303 C 1401.6667 1290.3333 1408 1275.3333 1408 1258 C 1408 1240.6667 1401.6667 1225.6667 1389 1213 C 1376.3333 1200.3333 1361.1415 1191.4288 1344 1194 L 1264 1206 L 1184 1206 L 1024 1206 L 864 1206 L 784 1206 L 704 1194 C 701.8573 1193.6786 699.73689 1193.5404 697.65625 1193.5625 z "
       transform="matrix(1,0,0,-1,-256,1664)"
       id="path6" />
  </g>
</svg>
