<?xml version="1.0" encoding="UTF-8" standalone="no"?>
<svg
   xmlns:dc="http://purl.org/dc/elements/1.1/"
   xmlns:cc="http://creativecommons.org/ns#"
   xmlns:rdf="http://www.w3.org/1999/02/22-rdf-syntax-ns#"
   xmlns:svg="http://www.w3.org/2000/svg"
   xmlns="http://www.w3.org/2000/svg"
   xmlns:sodipodi="http://sodipodi.sourceforge.net/DTD/sodipodi-0.dtd"
   xmlns:inkscape="http://www.inkscape.org/namespaces/inkscape"
   width="2048"
   height="2048"
   viewBox="-256 -384 2048 2048"
   id="svg2"
   version="1.1"
   inkscape:version="0.48.4 r9939"
   sodipodi:docname="face-uncertain.svg">
  <metadata
     id="metadata12">
    <rdf:RDF>
      <cc:Work
         rdf:about="">
        <dc:format>image/svg+xml</dc:format>
        <dc:type
           rdf:resource="http://purl.org/dc/dcmitype/StillImage" />
        <dc:title></dc:title>
      </cc:Work>
    </rdf:RDF>
  </metadata>
  <defs
     id="defs10" />
  <sodipodi:namedview
     pagecolor="#ffffff"
     bordercolor="#666666"
     borderopacity="1"
     objecttolerance="10"
     gridtolerance="10"
     guidetolerance="10"
     inkscape:pageopacity="0"
     inkscape:pageshadow="2"
     inkscape:window-width="1859"
     inkscape:window-height="1048"
     id="namedview8"
     showgrid="false"
     inkscape:zoom="0.32"
     inkscape:cx="1537.1501"
     inkscape:cy="601.85873"
     inkscape:window-x="-8"
     inkscape:window-y="-3"
     inkscape:window-maximized="1"
     inkscape:current-layer="g4"
     showguides="true"
     inkscape:guide-bbox="true" />
  <g
     transform="scale(1 -1) translate(0 -1280)"
     id="g4">
    <path
       style="fill:#000000"
       d="M 1024,256 C 884.66667,256 756.16667,290.3333 638.5,359 520.83333,427.6667 427.66667,520.8333 359,638.5 290.33333,756.16667 256,884.66667 256,1024 c 0,139.3333 34.33333,267.8333 103,385.5 68.66667,117.6667 161.83333,210.8333 279.5,279.5 117.66667,68.6667 246.16667,103 385.5,103 139.3333,0 267.8333,-34.3333 385.5,-103 117.6667,-68.6667 210.8333,-161.8333 279.5,-279.5 68.6667,-117.6667 103,-246.1667 103,-385.5 0,-139.33333 -34.3333,-267.83333 -103,-385.5 C 1620.3333,520.8333 1527.1667,427.6667 1409.5,359 1291.8333,290.3333 1163.3333,256 1024,256 z m 0,128 c 86.6667,0 169.5,17 248.5,51 79,34 147,79.5 204,136.5 57,57 102.5,125 136.5,204 34,79 51,161.83333 51,248.5 0,86.6667 -17,169.5 -51,248.5 -34,79 -79.5,147 -136.5,204 -57,57 -125,102.5 -204,136.5 -79,34 -161.8333,51 -248.5,51 -86.66667,0 -169.5,-17 -248.5,-51 -79,-34 -147,-79.5 -204,-136.5 -57,-57 -102.5,-125 -136.5,-204 -34,-79 -51,-161.8333 -51,-248.5 0,-86.66667 17,-169.5 51,-248.5 34,-79 79.5,-147 136.5,-204 57,-57 125,-102.5 204,-136.5 79,-34 161.83333,-51 248.5,-51 z M 739.21875,577.71875 c -66.62646,0 -123.51478,23.57745 -170.65625,70.71875 -47.14122,47.14133 -70.71889,104.02999 -70.71875,170.65625 0,66.62628 23.57753,123.51502 70.71875,170.65625 47.14147,47.1413 104.02979,70.6875 170.65625,70.6875 66.62617,0 123.51512,-23.5462 170.65625,-70.6875 47.14114,-47.14123 70.71875,-104.02997 70.71875,-170.65625 0,-66.62626 -23.57761,-123.51492 -70.71875,-170.65625 -47.14113,-47.1413 -104.02997,-70.71875 -170.65625,-70.71875 z m 564.46875,0 c -66.6264,0 -123.4835,23.57745 -170.625,70.71875 -47.1412,47.14133 -70.7189,104.02999 -70.7187,170.65625 0,66.62628 23.5775,123.51502 70.7187,170.65625 47.1415,47.1413 103.9986,70.6875 170.625,70.6875 66.6262,0 123.5151,-23.5462 170.6563,-70.6875 47.1412,-47.14123 70.7187,-104.02997 70.7187,-170.65625 0,-66.62626 -23.5776,-123.51492 -70.7187,-170.65625 -47.1412,-47.1413 -104.03,-70.71875 -170.6563,-70.71875 z M 743.03125,680.0625 c 38.37416,0 71.1302,13.59844 98.28125,40.75 27.15193,27.15165 40.71875,59.90694 40.71875,98.28125 0,38.37431 -13.56672,71.16085 -40.71875,98.3125 -27.15094,27.15163 -59.90709,40.71875 -98.28125,40.71875 -38.37442,0 -71.12963,-13.56712 -98.28125,-40.71875 -27.1516,-27.15165 -40.71875,-59.93819 -40.71875,-98.3125 0,-38.37431 13.56715,-71.1296 40.71875,-98.28125 27.15162,-27.15156 59.90683,-40.75 98.28125,-40.75 z m 564.49995,0 c 38.3742,0 71.0991,13.59844 98.25,40.75 27.1521,27.15165 40.7188,59.90694 40.7188,98.28125 0,38.37431 -13.5666,71.16085 -40.7188,98.3125 -27.1509,27.15163 -59.8758,40.71875 -98.25,40.71875 -38.3743,0 -71.1608,-13.56712 -98.3124,-40.71875 -27.1516,-27.15165 -40.7188,-59.93819 -40.7188,-98.3125 0,-38.37431 13.5671,-71.1296 40.7188,-98.28125 27.1516,-27.15156 59.9381,-40.75 98.3124,-40.75 z m -561.68745,79.84375 c -16.08537,0 -29.83773,5.7126 -41.21875,17.09375 -11.38115,11.38116 -17.03125,25.10222 -17.03125,41.1875 0,16.08529 5.6501,29.80642 17.03125,41.1875 11.38102,11.38109 25.13338,17.09375 41.21875,17.09375 16.08503,0 29.80673,-5.71266 41.1875,-17.09375 11.38111,-11.38108 17.09375,-25.10222 17.09375,-41.1875 0,-16.08528 -5.71264,-29.80634 -17.09375,-41.1875 -11.38077,-11.38115 -25.10247,-17.09375 -41.1875,-17.09375 z m 564.50005,0 c -16.0853,0 -29.8377,5.7126 -41.2188,17.09375 -11.3811,11.38116 -17.0625,25.10222 -17.0625,41.1875 0,16.08529 5.6814,29.80642 17.0625,41.1875 11.3811,11.38109 25.1335,17.09375 41.2188,17.09375 16.0851,0 29.7753,-5.71266 41.1562,-17.09375 11.381,-11.38108 17.0937,-25.10222 17.0938,-41.1875 0,-16.08528 -5.7128,-29.80634 -17.0938,-41.1875 -11.3809,-11.38115 -25.0711,-17.09375 -41.1562,-17.09375 z M 865.65625,1205.5625 c -14.56448,0.155 -27.57291,8.3542 -38.65625,19.4375 -12.66667,12.6667 -19,27.6667 -19,45 0,17.3333 6.33333,32.3333 19,45 12.66667,12.6667 27.66668,19 45,19 213.3333,0 82.6667,0 296,0 17.3333,0 32.3333,-6.3333 45,-19 12.6667,-12.6667 19,-27.6667 19,-45 0,-17.3333 -6.3333,-32.3333 -19,-45 -12.6667,-12.6667 -27.6667,-19 -45,-19 -213.3333,0 -82.6667,0 -296,0 -2.16667,0 -4.26311,-0.4596 -6.34375,-0.4375 z"
       transform="matrix(1,0,0,-1,-256,1664)"
       id="path6"
       inkscape:connector-curvature="0"
       sodipodi:nodetypes="ssssssssssssssssssssssssssssssssssssssssssssssssscscsssssscscsssssssssscscsssssssssscsssccsssccc" />
  </g>
</svg>
