<?xml version="1.0" encoding="UTF-8" standalone="no"?>
<svg
   xmlns:dc="http://purl.org/dc/elements/1.1/"
   xmlns:cc="http://creativecommons.org/ns#"
   xmlns:rdf="http://www.w3.org/1999/02/22-rdf-syntax-ns#"
   xmlns:svg="http://www.w3.org/2000/svg"
   xmlns="http://www.w3.org/2000/svg"
   xmlns:sodipodi="http://sodipodi.sourceforge.net/DTD/sodipodi-0.dtd"
   xmlns:inkscape="http://www.inkscape.org/namespaces/inkscape"
   width="2048"
   height="2048"
   viewBox="-192 -384 2048 2048"
   id="svg2"
   version="1.1"
   inkscape:version="0.48.4 r9939"
   sodipodi:docname="accessories-calculator.svg">
  <metadata
     id="metadata12">
    <rdf:RDF>
      <cc:Work
         rdf:about="">
        <dc:format>image/svg+xml</dc:format>
        <dc:type
           rdf:resource="http://purl.org/dc/dcmitype/StillImage" />
        <dc:title></dc:title>
      </cc:Work>
    </rdf:RDF>
  </metadata>
  <defs
     id="defs10" />
  <sodipodi:namedview
     pagecolor="#ffffff"
     bordercolor="#666666"
     borderopacity="1"
     objecttolerance="10"
     gridtolerance="10"
     guidetolerance="10"
     inkscape:pageopacity="0"
     inkscape:pageshadow="2"
     inkscape:window-width="1859"
     inkscape:window-height="1048"
     id="namedview8"
     showgrid="false"
     inkscape:zoom="0.11313708"
     inkscape:cx="876.07775"
     inkscape:cy="1199.272"
     inkscape:window-x="-8"
     inkscape:window-y="-3"
     inkscape:window-maximized="1"
     inkscape:current-layer="svg2"
     showguides="true"
     inkscape:guide-bbox="true" />
  <g
     id="g3026"
     transform="matrix(0.93186416,0,0,-0.97586831,3476.5931,2164.4044)">
    <path
       style="fill:#000000"
       d="m 437.4375,136.65625 c -38.8077,0 -72.02035,20.1541 -99.65625,60.5 -27.6358,40.346 -41.46875,88.8441 -41.46875,145.5 l 0,1400.96875 c 0,56.656 13.83295,105.154 41.46875,145.5 27.6359,40.3459 60.84855,60.5 99.65625,60.5 l 1185.4063,0 c 38.8077,0 72.0205,-20.1541 99.6562,-60.5 27.6358,-40.3459 41.4688,-88.844 41.4688,-145.5 l 0,-1400.96875 c -2e-4,-56.6559 -13.833,-105.154 -41.4688,-145.5 -27.6357,-40.3459 -60.8485,-60.5 -99.6562,-60.5 l -1185.4063,0 z M 552.65625,353.5 1486.625,353.96875 c 6.486,0 11.8304,3.9892 16,12.875 4.1696,8.8857 6.25,20.2405 6.25,34.0625 l 0,284.34375 c 0,13.8219 -2.0804,25.1767 -6.25,34.0625 -4.1696,8.8858 -9.514,13.3125 -16,13.3125 l -933.96875,0 c -6.486,0 -11.8304,-4.4267 -16,-13.3125 -4.1696,-8.8858 -6.25,-20.2406 -6.25,-34.0625 l 0,-284.34375 c 0,-13.822 2.0804,-25.1768 6.25,-34.0625 4.1696,-8.8858 9.514,-13.34375 16,-13.34375 z m 0.125,526.6875 222.375,0 c 6.486,0 11.8304,2.6035 16,7.8125 4.1695,5.209 6.25,11.86585 6.25,19.96875 l 0,166.68745 c 0,8.1028 -2.0805,14.7598 -6.25,19.9688 -4.1696,5.209 -9.514,7.8125 -16,7.8125 l -222.375,0 c -6.486,0 -11.79915,-2.6035 -15.96875,-7.8125 -4.1696,-5.209 -6.28125,-11.866 -6.28125,-19.9688 l 0,-166.68745 c 0,-8.1029 2.11165,-14.75975 6.28125,-19.96875 4.1696,-5.209 9.48275,-7.8125 15.96875,-7.8125 z m 355.8125,0 222.37505,0 c 6.486,0 11.7992,2.6035 15.9687,7.8125 4.1696,5.209 6.25,11.86585 6.25,19.96875 l 0,166.68745 c 0,8.1029 -2.0804,14.7598 -6.25,19.9688 -4.1695,5.209 -9.4827,7.8125 -15.9687,7.8125 l -222.37505,0 c -6.486,0 -11.8305,-2.6035 -16,-7.8125 -4.1696,-5.209 -6.25,-11.8659 -6.25,-19.9688 l 0,-166.68745 c 0,-8.1029 2.0804,-14.75975 6.25,-19.96875 4.1695,-5.209 9.514,-7.8125 16,-7.8125 z m 355.78125,0 222.4062,0 c 6.486,0 11.7992,2.6035 15.9688,7.8125 4.1696,5.209 6.25,11.86585 6.25,19.96875 l 0,166.68745 c 0,8.1029 -2.0804,14.7598 -6.25,19.9688 -4.1696,5.209 -9.4827,7.8125 -15.9688,7.8125 l -222.4062,0 c -6.486,0 -11.7992,-2.6035 -15.9688,-7.8125 -4.1694,-5.209 -6.25,-11.8659 -6.25,-19.9688 l 0,-166.68745 c 0,-8.1029 2.0806,-14.75975 6.25,-19.96875 4.1697,-5.209 9.4828,-7.8125 15.9688,-7.8125 z m -711.59375,333.375 222.375,0 c 6.486,0 11.8304,2.6035 16,7.8125 4.1695,5.209 6.25,11.8658 6.25,19.9688 l 0,166.6874 c 0,8.1029 -2.0805,14.7598 -6.25,19.9688 -4.1696,5.209 -9.514,7.8125 -16,7.8125 l -222.375,0 c -6.486,0 -11.79915,-2.6035 -15.96875,-7.8125 -4.1696,-5.209 -6.28125,-11.8658 -6.28125,-19.9688 l 0,-166.6874 c 0,-8.1029 2.11165,-14.7598 6.28125,-19.9688 4.1696,-5.209 9.48275,-7.8125 15.96875,-7.8125 z m 355.8125,0 222.37505,0 c 6.486,0 11.7992,2.6035 15.9687,7.8125 4.1696,5.209 6.25,11.8659 6.25,19.9688 l 0,166.6874 c 0,8.1029 -2.0804,14.7598 -6.25,19.9688 -4.1695,5.209 -9.4827,7.8125 -15.9687,7.8125 l -222.37505,0 c -6.486,0 -11.8305,-2.6035 -16,-7.8125 -4.1696,-5.209 -6.25,-11.8658 -6.25,-19.9688 l 0,-166.6874 c 0,-8.1029 2.0804,-14.7598 6.25,-19.9688 4.1695,-5.209 9.514,-7.8125 16,-7.8125 z m 355.78125,0 222.4062,0 c 6.486,0 11.7992,2.6035 15.9688,7.8125 4.1696,5.209 6.25,11.8659 6.25,19.9688 l 0,166.6874 c 0,8.1029 -2.0804,14.7598 -6.25,19.9688 -4.1696,5.209 -9.4827,7.8125 -15.9688,7.8125 l -222.4062,0 c -6.486,0 -11.7992,-2.6035 -15.9688,-7.8125 -4.1694,-5.209 -6.25,-11.8658 -6.25,-19.9688 l 0,-166.6874 c 0,-8.1029 2.0806,-14.7598 6.25,-19.9688 4.1697,-5.209 9.4828,-7.8125 15.9688,-7.8125 z m -711.59375,333.375 222.375,0 c 6.486,0 11.8304,2.6035 16,7.8125 4.1695,5.209 6.25,11.8658 6.25,19.9688 l 0,166.6874 c 0,8.1029 -2.0805,14.7598 -6.25,19.9688 -4.1696,5.209 -9.514,7.8125 -16,7.8125 l -222.375,0 c -6.486,0 -11.79915,-2.6035 -15.96875,-7.8125 -4.1696,-5.209 -6.28125,-11.866 -6.28125,-19.9688 l 0,-166.6874 c 0,-8.103 2.11165,-14.7598 6.28125,-19.9688 4.1696,-5.209 9.48275,-7.8125 15.96875,-7.8125 z m 355.8125,0 222.37505,0 c 6.486,0 11.7992,2.6035 15.9687,7.8125 4.1696,5.209 6.25,11.8658 6.25,19.9688 l 0,166.6874 c 0,8.1029 -2.0804,14.7598 -6.25,19.9688 -4.1695,5.209 -9.4827,7.8125 -15.9687,7.8125 l -222.37505,0 c -6.486,0 -11.8305,-2.6035 -16,-7.8125 -4.1696,-5.209 -6.25,-11.866 -6.25,-19.9688 l 0,-166.6874 c 0,-8.103 2.0804,-14.7598 6.25,-19.9688 4.1695,-5.209 9.514,-7.8125 16,-7.8125 z m 355.78125,0 222.4062,0 c 6.486,0 11.7992,2.6035 15.9688,7.8125 4.1696,5.209 6.25,11.8658 6.25,19.9688 l 0,166.6874 c 0,8.1029 -2.0804,14.7598 -6.25,19.9688 -4.1696,5.209 -9.4827,7.8125 -15.9688,7.8125 l -222.4062,0 c -6.486,0 -11.7992,-2.6035 -15.9688,-7.8125 -4.1694,-5.209 -6.25,-11.866 -6.25,-19.9688 l 0,-166.6874 c 0,-8.103 2.0806,-14.7598 6.25,-19.9688 4.1697,-5.209 9.4828,-7.8125 15.9688,-7.8125 z"
       transform="matrix(1,0,0,-1,-3855.3405,2587.8048)"
       id="path3028"
       inkscape:connector-curvature="0" />
  </g>
</svg>
