<?xml version="1.0" encoding="UTF-8" standalone="no"?>
<svg
   xmlns:dc="http://purl.org/dc/elements/1.1/"
   xmlns:cc="http://creativecommons.org/ns#"
   xmlns:rdf="http://www.w3.org/1999/02/22-rdf-syntax-ns#"
   xmlns:svg="http://www.w3.org/2000/svg"
   xmlns="http://www.w3.org/2000/svg"
   xmlns:xlink="http://www.w3.org/1999/xlink"
   xmlns:sodipodi="http://sodipodi.sourceforge.net/DTD/sodipodi-0.dtd"
   xmlns:inkscape="http://www.inkscape.org/namespaces/inkscape"
   width="2048"
   height="2048"
   viewBox="-192 -384 2048 2048"
   id="svg2"
   version="1.1"
   inkscape:version="0.48.4 r9939"
   sodipodi:docname="preferences-desktop-font.svg">
  <metadata
     id="metadata12">
    <rdf:RDF>
      <cc:Work
         rdf:about="">
        <dc:format>image/svg+xml</dc:format>
        <dc:type
           rdf:resource="http://purl.org/dc/dcmitype/StillImage" />
        <dc:title />
      </cc:Work>
    </rdf:RDF>
  </metadata>
  <defs
     id="defs10">
    <linearGradient
       inkscape:collect="always"
       id="linearGradient2991">
      <stop
         style="stop-color:#000000;stop-opacity:1;"
         offset="0"
         id="stop2993" />
      <stop
         style="stop-color:#000000;stop-opacity:0;"
         offset="1"
         id="stop2995" />
    </linearGradient>
    <linearGradient
       inkscape:collect="always"
       xlink:href="#linearGradient2991"
       id="linearGradient2997"
       x1="-4926.0586"
       y1="-723.28752"
       x2="-4275.8242"
       y2="-723.28752"
       gradientUnits="userSpaceOnUse" />
    <linearGradient
       inkscape:collect="always"
       xlink:href="#linearGradient2991"
       id="linearGradient3000"
       gradientUnits="userSpaceOnUse"
       x1="-4926.0586"
       y1="-723.28752"
       x2="-4275.8242"
       y2="-723.28752" />
  </defs>
  <sodipodi:namedview
     pagecolor="#ffffff"
     bordercolor="#666666"
     borderopacity="1"
     objecttolerance="10"
     gridtolerance="10"
     guidetolerance="10"
     inkscape:pageopacity="0"
     inkscape:pageshadow="2"
     inkscape:window-width="1859"
     inkscape:window-height="1048"
     id="namedview8"
     showgrid="false"
     inkscape:zoom="0.16"
     inkscape:cx="1424.5565"
     inkscape:cy="1054.6229"
     inkscape:window-x="-8"
     inkscape:window-y="-3"
     inkscape:window-maximized="1"
     inkscape:current-layer="g4"
     showguides="true"
     inkscape:guide-bbox="true" />
  <g
     transform="scale(1 -1) translate(0 -1280)"
     id="g4">
    <path
       style="fill:#000000"
       d="M 1418.9375 74.53125 C 1407.599 74.53125 1398.7812 83.349176 1398.7812 94.6875 L 1398.7812 195.5 L 1560.0312 195.5 L 1560.0312 94.6875 C 1560.0313 83.349176 1551.2135 74.53125 1539.875 74.53125 L 1418.9375 74.53125 z M 1741.4375 74.53125 C 1730.099 74.53125 1721.2812 83.349176 1721.2812 94.6875 L 1721.2812 679.25 L 1882.5312 679.25 L 1882.5312 94.6875 C 1882.5312 83.349176 1873.7135 74.53125 1862.375 74.53125 L 1741.4375 74.53125 z M 1378.625 235.8125 C 1345.2396 235.8125 1318.1562 262.89595 1318.1562 296.28125 L 1318.1562 336.59375 C 1318.1562 369.97915 1345.2396 397.0625 1378.625 397.0625 L 1580.1875 397.0625 C 1613.5729 397.0625 1640.6562 369.97915 1640.6562 336.59375 L 1640.6562 296.28125 C 1640.6563 262.89595 1613.5729 235.8125 1580.1875 235.8125 L 1378.625 235.8125 z M 949 256 L 669 980 L 432 1596 C 413.33333 1630.6667 397.33333 1653.3333 384 1664 C 370 1674 333.33333 1684.3333 274 1695 C 235.33333 1702.3333 208.66667 1708.3333 194 1713 L 192 1792 L 213 1792 C 270.33333 1792 326 1787.3333 380 1778 L 428 1770 C 616.66667 1783.3333 733 1790 777 1790 C 778.33333 1783.3333 779 1774.3333 779 1763 C 779 1743 778.66667 1723.6667 778 1705 C 764 1703 750.5 1701 737.5 1699 C 724.5 1697 714.5 1695.3333 707.5 1694 C 700.5 1692.6667 696 1692 694 1692 C 642.66667 1684.6667 608.33333 1674 591 1660 C 579.66667 1652 574 1637.6667 574 1617 C 574 1603.6667 581.66667 1575.6667 597 1533 C 647 1393.6667 681.67167 1302.3333 701 1259 L 1151 1261 L 1243 1489 L 1290 1603 C 1294 1614.3333 1296 1625 1296 1635 C 1296 1645 1292 1654 1284 1662 C 1276 1668.6667 1253.3333 1676.3333 1216 1685 L 1085 1713 C 1082.3333 1735 1081 1761 1081 1791 L 1139 1789 L 1339 1778 C 1376.3333 1776.6667 1421.3333 1776 1474 1776 C 1538 1776 1601 1778.6667 1663 1784 C 1737.6667 1789.3333 1801.6667 1792 1855 1792 C 1855.6667 1784 1856 1775.3333 1856 1766 C 1856 1754 1854 1735 1850 1709 C 1812.6667 1695 1778.3333 1686 1747 1682 C 1715.6667 1679.3333 1692.6667 1671.6667 1678 1659 C 1669.3333 1653.6667 1657.6667 1634.6667 1643 1602 C 1615.6667 1547.3333 1594 1497.6667 1578 1453 C 1552 1382.3333 1530.3333 1327.6667 1513 1289 C 1503.5 1266.8333 1494.375 1245.3125 1485.625 1224.4375 C 1476.875 1203.5625 1468.4012 1183.3734 1460.5 1163.75 L 1437.625 1106.9375 L 1316.1875 1106.9375 L 1316.1875 811.65625 L 1293 757 L 1241.75 637 L 1190.5 517 L 1139.25 397 L 1088 277 L 1077 256 L 1024 256 L 949 256 z M 1398.7812 437.375 L 1398.7812 1021.9375 C 1398.7812 1033.276 1407.599 1042.0938 1418.9375 1042.0938 L 1539.875 1042.0938 C 1551.2135 1042.0938 1560.0312 1033.276 1560.0312 1021.9375 L 1560.0312 437.375 L 1398.7812 437.375 z M 917 687 C 943 739.66667 973.66667 810 1009 898 C 1049 995.33333 1079.6667 1075.6667 1101 1139 L 1072 1141 C 1062.6667 1141 1045.1667 1140.8333 1019.5 1140.5 C 993.83333 1140.1667 954.16667 1139.6667 900.5 1139 C 846.83333 1138.3333 795.66667 1137.6667 747 1137 L 917 687 z M 1701.125 719.5625 C 1667.7396 719.5625 1640.6562 746.6771 1640.6562 780.0625 L 1640.6562 820.375 C 1640.6563 853.76041 1667.7396 880.84375 1701.125 880.84375 L 1902.7188 880.84375 C 1936.1042 880.84375 1963.1875 853.76041 1963.1875 820.375 L 1963.1875 780.0625 C 1963.1875 746.6771 1936.1042 719.5625 1902.7188 719.5625 L 1701.125 719.5625 z M 1721.2812 921.15625 L 1721.2812 1021.9375 C 1721.2813 1033.276 1730.099 1042.0938 1741.4375 1042.0938 L 1862.375 1042.0938 C 1873.7135 1042.0937 1882.5312 1033.276 1882.5312 1021.9375 L 1882.5312 921.15625 L 1721.2812 921.15625 z "
       transform="matrix(1,0,0,-1,-192,1664)"
       id="path6" />
  </g>
  <flowRoot
     xml:space="preserve"
     id="flowRoot3003"
     style="fill:black;stroke:none;stroke-opacity:1;stroke-width:1px;stroke-linejoin:miter;stroke-linecap:butt;fill-opacity:1;font-family:FontAwesome;font-style:normal;font-weight:normal;font-size:16px;line-height:125%;letter-spacing:0px;word-spacing:0px;-inkscape-font-specification:FontAwesome;font-stretch:normal;font-variant:normal"><flowRegion
       id="flowRegion3005"><rect
         id="rect3007"
         width="1065.2203"
         height="650.84747"
         x="1854.9153"
         y="284.2034"
         style="-inkscape-font-specification:FontAwesome;font-family:FontAwesome;font-weight:normal;font-style:normal;font-stretch:normal;font-variant:normal;font-size:16px" /></flowRegion><flowPara
       id="flowPara3009"></flowPara></flowRoot>  <flowRoot
     xml:space="preserve"
     id="flowRoot3011"
     style="font-size:40px;font-style:normal;font-variant:normal;font-weight:normal;font-stretch:normal;line-height:125%;letter-spacing:0px;word-spacing:0px;fill:#000000;fill-opacity:1;stroke:none;font-family:MgOpen Moderna;-inkscape-font-specification:MgOpen Moderna"
     transform="translate(-192,-384)"><flowRegion
       id="flowRegion3013"><rect
         id="rect3015"
         width="1900.4746"
         height="1188.8813"
         x="1759.4576"
         y="132.33897" /></flowRegion><flowPara
       id="flowPara3017"
       style="font-size:64px;font-style:normal;font-variant:normal;font-weight:normal;font-stretch:normal;font-family:FontAwesome;-inkscape-font-specification:FontAwesome" /></flowRoot>  <g
     style="font-size:259.25927734px;font-style:normal;font-variant:normal;font-weight:normal;font-stretch:normal;line-height:125%;letter-spacing:0px;word-spacing:0px;fill:#000000;fill-opacity:1;stroke:none;font-family:MgOpen Moderna;-inkscape-font-specification:MgOpen Moderna"
     id="text3019"
     transform="matrix(0,-1.0447565,-1.0447565,0,1564.8616,1232.1538)" />
</svg>
