<?xml version="1.0" encoding="UTF-8" standalone="no"?>
<svg
   xmlns:dc="http://purl.org/dc/elements/1.1/"
   xmlns:cc="http://creativecommons.org/ns#"
   xmlns:rdf="http://www.w3.org/1999/02/22-rdf-syntax-ns#"
   xmlns:svg="http://www.w3.org/2000/svg"
   xmlns="http://www.w3.org/2000/svg"
   xmlns:sodipodi="http://sodipodi.sourceforge.net/DTD/sodipodi-0.dtd"
   xmlns:inkscape="http://www.inkscape.org/namespaces/inkscape"
   width="2048"
   height="2048"
   viewBox="-64 -384 2048 2048"
   id="svg2"
   version="1.1"
   inkscape:version="0.48.4 r9939"
   sodipodi:docname="preferences-desktop-keyboard.svg">
  <metadata
     id="metadata12">
    <rdf:RDF>
      <cc:Work
         rdf:about="">
        <dc:format>image/svg+xml</dc:format>
        <dc:type
           rdf:resource="http://purl.org/dc/dcmitype/StillImage" />
        <dc:title />
      </cc:Work>
    </rdf:RDF>
  </metadata>
  <defs
     id="defs10" />
  <sodipodi:namedview
     pagecolor="#ffffff"
     bordercolor="#666666"
     borderopacity="1"
     objecttolerance="10"
     gridtolerance="10"
     guidetolerance="10"
     inkscape:pageopacity="0"
     inkscape:pageshadow="2"
     inkscape:window-width="1859"
     inkscape:window-height="1048"
     id="namedview8"
     showgrid="false"
     inkscape:zoom="0.32593203"
     inkscape:cx="1173.6017"
     inkscape:cy="1204.9874"
     inkscape:window-x="-8"
     inkscape:window-y="-3"
     inkscape:window-maximized="1"
     inkscape:current-layer="svg2" />
  <g
     transform="scale(1 -1) translate(0 -1280)"
     id="g4">
    <path
       style="fill:#000000"
       d="M 1436.5312 101.875 C 1425.1927 101.875 1416.375 110.69285 1416.375 122.03125 L 1416.375 222.84375 L 1577.625 222.84375 L 1577.625 122.03125 C 1577.6251 110.69285 1568.8073 101.875 1557.4688 101.875 L 1436.5312 101.875 z M 1759.0312 101.875 C 1747.6927 101.875 1738.875 110.69285 1738.875 122.03125 L 1738.875 706.59375 L 1900.125 706.59375 L 1900.125 122.03125 C 1900.125 110.69285 1891.3072 101.875 1879.9688 101.875 L 1759.0312 101.875 z M 1396.2188 263.15625 C 1362.8334 263.15625 1335.75 290.2397 1335.75 323.625 L 1335.75 363.9375 C 1335.75 397.3229 1362.8333 424.40625 1396.2188 424.40625 L 1597.7812 424.40625 C 1631.1666 424.40625 1658.25 397.3229 1658.25 363.9375 L 1658.25 323.625 C 1658.2501 290.2397 1631.1667 263.15625 1597.7812 263.15625 L 1396.2188 263.15625 z M 1416.375 464.71875 L 1416.375 1049.2812 C 1416.375 1060.6197 1425.1927 1069.4375 1436.5312 1069.4375 L 1557.4688 1069.4375 C 1568.8073 1069.4375 1577.625 1060.6197 1577.625 1049.2812 L 1577.625 464.71875 L 1416.375 464.71875 z M 192 512 C 156.66667 512 126.5 524.5 101.5 549.5 C 76.5 574.5 64 604.6667 64 640 L 64 1536 C 64 1571.3333 76.5 1601.5 101.5 1626.5 C 126.5 1651.5 156.66667 1664 192 1664 L 1856 1664 C 1891.3333 1664 1921.5 1651.5 1946.5 1626.5 C 1971.5 1601.5 1984 1571.3333 1984 1536 L 1984 1312 L 1984 1200 L 1856 1200 L 1856 1312 L 1856 1536 L 192 1536 L 192 640 L 1024 640 L 1232 640 L 1232 512 L 1024 512 L 192 512 z M 1718.7188 746.90625 C 1685.3334 746.90625 1658.25 774.02085 1658.25 807.40625 L 1658.25 847.71875 C 1658.2501 881.10415 1685.3333 908.1875 1718.7188 908.1875 L 1920.3125 908.1875 C 1953.6979 908.1875 1980.7812 881.10415 1980.7812 847.71875 L 1980.7812 807.40625 C 1980.7812 774.02085 1953.6979 746.90625 1920.3125 746.90625 L 1718.7188 746.90625 z M 336 768 C 325.33333 768 320 773.33333 320 784 L 320 880 C 320 890.66667 325.33333 896 336 896 L 432 896 C 442.66667 896 448 890.66667 448 880 L 448 784 C 448 773.33333 442.66667 768 432 768 L 336 768 z M 592 768 C 581.33333 768 576 773.33333 576 784 L 576 880 C 576 890.66667 581.33333 896 592 896 L 688 896 C 698.66667 896 704 890.66667 704 880 L 704 784 C 704 773.33333 698.66667 768 688 768 L 592 768 z M 848 768 C 837.33333 768 832 773.33333 832 784 L 832 880 C 832 890.66667 837.33333 896 848 896 L 944 896 C 954.66667 896 960 890.66667 960 880 L 960 784 C 960 773.33333 954.66667 768 944 768 L 848 768 z M 1104 768 C 1093.3333 768 1088 773.33333 1088 784 L 1088 880 C 1088 890.66667 1093.3333 896 1104 896 L 1200 896 C 1210.6667 896 1216 890.66667 1216 880 L 1216 784 C 1216 773.33333 1210.6667 768 1200 768 L 1104 768 z M 1738.875 948.5 L 1738.875 1049.2812 C 1738.8751 1060.6198 1747.6928 1069.4375 1759.0312 1069.4375 L 1879.9688 1069.4375 C 1891.3073 1069.4374 1900.125 1060.6198 1900.125 1049.2812 L 1900.125 948.5 L 1738.875 948.5 z M 1279.9375 1022.0938 C 1266.8054 1022.2049 1251.0028 1022.9622 1232 1024 C 1221.3333 1024 1216 1029.3333 1216 1040 L 1216 1136 C 1216 1146.6667 1221.3333 1152 1232 1152 L 1328 1152 C 1338.6667 1152 1344 1146.6667 1344 1136 C 1344 1039.8483 1350.8509 1021.4937 1279.9375 1022.0938 z M 336 1024 C 325.33333 1024 320 1029.3333 320 1040 L 320 1136 C 320 1146.6667 325.33333 1152 336 1152 L 560 1152 C 570.66667 1152 576 1146.6667 576 1136 L 576 1040 C 576 1029.3333 570.66667 1024 560 1024 L 336 1024 z M 720 1024 C 709.33333 1024 704 1029.3333 704 1040 L 704 1136 C 704 1146.6667 709.33333 1152 720 1152 L 816 1152 C 826.66667 1152 832 1146.6667 832 1136 L 832 1040 C 832 1029.3333 826.66667 1024 816 1024 L 720 1024 z M 976 1024 C 965.33333 1024 960 1029.3333 960 1040 L 960 1136 C 960 1146.6667 965.33333 1152 976 1152 L 1072 1152 C 1082.6667 1152 1088 1146.6667 1088 1136 L 1088 1040 C 1088 1029.3333 1082.6667 1024 1072 1024 L 976 1024 z M 336 1280 C 325.33333 1280 320 1285.3333 320 1296 L 320 1392 C 320 1402.6667 325.33333 1408 336 1408 L 432 1408 C 442.66667 1408 448 1402.6667 448 1392 L 448 1296 C 448 1285.3333 442.66667 1280 432 1280 L 336 1280 z M 592 1280 C 581.33333 1280 576 1285.3333 576 1296 L 576 1392 C 576 1402.6667 581.33333 1408 592 1408 L 1456 1408 C 1466.6667 1408 1472 1402.6667 1472 1392 L 1472 1296 C 1472 1285.3333 1466.6667 1280 1456 1280 L 592 1280 z M 1616 1280 C 1605.3333 1280 1600 1285.3333 1600 1296 L 1600 1392 C 1600 1402.6667 1605.3333 1408 1616 1408 L 1712 1408 C 1722.6667 1408 1728 1402.6667 1728 1392 L 1728 1296 C 1728 1285.3333 1722.6667 1280 1712 1280 L 1616 1280 z "
       transform="matrix(1,0,0,-1,-64,1664)"
       id="path6" />
  </g>
</svg>
