<?xml version="1.0" encoding="UTF-8" standalone="no"?>
<svg
   xmlns:dc="http://purl.org/dc/elements/1.1/"
   xmlns:cc="http://creativecommons.org/ns#"
   xmlns:rdf="http://www.w3.org/1999/02/22-rdf-syntax-ns#"
   xmlns:svg="http://www.w3.org/2000/svg"
   xmlns="http://www.w3.org/2000/svg"
   xmlns:sodipodi="http://sodipodi.sourceforge.net/DTD/sodipodi-0.dtd"
   xmlns:inkscape="http://www.inkscape.org/namespaces/inkscape"
   width="2048"
   height="2048"
   viewBox="-128 -384 2048 2048"
   id="svg2"
   version="1.1"
   inkscape:version="0.48.4 r9939"
   sodipodi:docname="share.svg">
  <metadata
     id="metadata12">
    <rdf:RDF>
      <cc:Work
         rdf:about="">
        <dc:format>image/svg+xml</dc:format>
        <dc:type
           rdf:resource="http://purl.org/dc/dcmitype/StillImage" />
      </cc:Work>
    </rdf:RDF>
  </metadata>
  <defs
     id="defs10" />
  <sodipodi:namedview
     pagecolor="#ffffff"
     bordercolor="#666666"
     borderopacity="1"
     objecttolerance="10"
     gridtolerance="10"
     guidetolerance="10"
     inkscape:pageopacity="0"
     inkscape:pageshadow="2"
     inkscape:window-width="640"
     inkscape:window-height="480"
     id="namedview8"
     showgrid="false"
     inkscape:zoom="0.11523438"
     inkscape:cx="1024"
     inkscape:cy="1024"
     inkscape:window-x="655"
     inkscape:window-y="394"
     inkscape:window-maximized="0"
     inkscape:current-layer="svg2" />
  <g
     transform="translate(0,-64)"
     id="g4">
    <path
       d="m 1792,896 q 0,-26 -19,-45 L 1261,339 q -19,-19 -45,-19 -26,0 -45,19 -19,19 -19,45 V 640 H 928 Q 830,640 752.5,634 675,628 598.5,612.5 522,597 465.5,570 409,543 360,500.5 311,458 280,399.5 249,341 231.5,261 214,181 214,80 q 0,-55 5,-123 0,-6 2.5,-23.5 2.5,-17.5 2.5,-26.5 0,-15 -8.5,-25 -8.5,-10 -23.5,-10 -16,0 -28,17 -7,9 -13,22 -6,13 -13.5,30 Q 130,-42 127,-35 0,250 0,416 q 0,199 53,333 162,403 875,403 h 224 v 256 q 0,26 19,45 19,19 45,19 26,0 45,-19 l 512,-512 q 19,-19 19,-45 z"
       id="path6"
       inkscape:connector-curvature="0"
       style="fill:#000000" />
  </g>
</svg>
