<?xml version="1.0" encoding="UTF-8" standalone="no"?>
<svg
   xmlns:dc="http://purl.org/dc/elements/1.1/"
   xmlns:cc="http://creativecommons.org/ns#"
   xmlns:rdf="http://www.w3.org/1999/02/22-rdf-syntax-ns#"
   xmlns:svg="http://www.w3.org/2000/svg"
   xmlns="http://www.w3.org/2000/svg"
   xmlns:sodipodi="http://sodipodi.sourceforge.net/DTD/sodipodi-0.dtd"
   xmlns:inkscape="http://www.inkscape.org/namespaces/inkscape"
   width="2048"
   height="2048"
   viewBox="-320 -384 2048 2048"
   id="svg2"
   version="1.1"
   inkscape:version="0.48.4 r9939"
   sodipodi:docname="building-o.svg">
  <metadata
     id="metadata12">
    <rdf:RDF>
      <cc:Work
         rdf:about="">
        <dc:format>image/svg+xml</dc:format>
        <dc:type
           rdf:resource="http://purl.org/dc/dcmitype/StillImage" />
      </cc:Work>
    </rdf:RDF>
  </metadata>
  <defs
     id="defs10" />
  <sodipodi:namedview
     pagecolor="#ffffff"
     bordercolor="#666666"
     borderopacity="1"
     objecttolerance="10"
     gridtolerance="10"
     guidetolerance="10"
     inkscape:pageopacity="0"
     inkscape:pageshadow="2"
     inkscape:window-width="640"
     inkscape:window-height="480"
     id="namedview8"
     showgrid="false" />
  <path
     style="fill:#000000"
     inkscape:connector-curvature="0"
     d="m 411.61312,1019.1825 v 64 q 0,13 -9.5,22.5 -9.5,9.5 -22.5,9.5 h -64 q -13,0 -22.5,-9.5 -9.5,-9.5 -9.5,-22.5 v -64 q 0,-13 9.5,-22.49999 9.5,-9.5 22.5,-9.5 h 64 q 13,0 22.5,9.5 9.5,9.49999 9.5,22.49999 z m 0,-255.99999 v 64 q 0,13 -9.5,22.5 -9.5,9.5 -22.5,9.5 h -64 q -13,0 -22.5,-9.5 -9.5,-9.5 -9.5,-22.5 v -64 q 0,-13 9.5,-22.5 9.5,-9.5 22.5,-9.5 h 64 q 13,0 22.5,9.5 9.5,9.5 9.5,22.5 z m 256,0 v 64 q 0,13 -9.5,22.5 -9.5,9.5 -22.5,9.5 h -64 q -13,0 -22.5,-9.5 -9.5,-9.5 -9.5,-22.5 v -64 q 0,-13 9.5,-22.5 9.5,-9.5 22.5,-9.5 h 64 q 13,0 22.5,9.5 9.5,9.5 9.5,22.5 z m -256,-256 v 64 q 0,13 -9.5,22.5 -9.5,9.5 -22.5,9.5 h -64 q -13,0 -22.5,-9.5 -9.5,-9.5 -9.5,-22.5 v -64 q 0,-13 9.5,-22.5 9.5,-9.5 22.5,-9.5 h 64 q 13,0 22.5,9.5 9.5,9.5 9.5,22.5 z m 767.99998,511.99999 v 64 q 0,13 -9.5,22.5 -9.5,9.5 -22.5,9.5 h -64 q -13,0 -22.5,-9.5 -9.5,-9.5 -9.5,-22.5 v -64 q 0,-13 9.5,-22.49999 9.5,-9.5 22.5,-9.5 h 64 q 13,0 22.5,9.5 9.5,9.49999 9.5,22.49999 z M 923.61312,763.18251 v 64 q 0,13 -9.5,22.5 -9.5,9.5 -22.5,9.5 h -64 q -13,0 -22.5,-9.5 -9.5,-9.5 -9.5,-22.5 v -64 q 0,-13 9.5,-22.5 9.5,-9.5 22.5,-9.5 h 64 q 13,0 22.5,9.5 9.5,9.5 9.5,22.5 z m -256,-256 v 64 q 0,13 -9.5,22.5 -9.5,9.5 -22.5,9.5 h -64 q -13,0 -22.5,-9.5 -9.5,-9.5 -9.5,-22.5 v -64 q 0,-13 9.5,-22.5 9.5,-9.5 22.5,-9.5 h 64 q 13,0 22.5,9.5 9.5,9.5 9.5,22.5 z m -256,-256 v 64 q 0,13 -9.5,22.5 -9.5,9.5 -22.5,9.5 h -64 q -13,0 -22.5,-9.5 -9.5,-9.5 -9.5,-22.5 v -64 q 0,-13 9.5,-22.5 9.5,-9.5 22.5,-9.5 h 64 q 13,0 22.5,9.5 9.5,9.5 9.5,22.5 z m 767.99998,512 v 64 q 0,13 -9.5,22.5 -9.5,9.5 -22.5,9.5 h -64 q -13,0 -22.5,-9.5 -9.5,-9.5 -9.5,-22.5 v -64 q 0,-13 9.5,-22.5 9.5,-9.5 22.5,-9.5 h 64 q 13,0 22.5,9.5 9.5,9.5 9.5,22.5 z m -255.99998,-256 v 64 q 0,13 -9.5,22.5 -9.5,9.5 -22.5,9.5 h -64 q -13,0 -22.5,-9.5 -9.5,-9.5 -9.5,-22.5 v -64 q 0,-13 9.5,-22.5 9.5,-9.5 22.5,-9.5 h 64 q 13,0 22.5,9.5 9.5,9.5 9.5,22.5 z m -256,-256 v 64 q 0,13 -9.5,22.5 -9.5,9.5 -22.5,9.5 h -64 q -13,0 -22.5,-9.5 -9.5,-9.5 -9.5,-22.5 v -64 q 0,-13 9.5,-22.5 9.5,-9.5 22.5,-9.5 h 64 q 13,0 22.5,9.5 9.5,9.5 9.5,22.5 z m -256,-256.0000016 V 59.182508 q 0,13 -9.5,22.5 -9.5,9.5 -22.5,9.5 h -64 q -13,0 -22.5,-9.5 -9.5,-9.5 -9.5,-22.5 V -4.8174916 q 0,-13.0000004 9.5,-22.5000004 9.5,-9.5 22.5,-9.5 h 64 q 13,0 22.5,9.5 9.5,9.5 9.5,22.5000004 z M 1179.6131,507.18251 v 64 q 0,13 -9.5,22.5 -9.5,9.5 -22.5,9.5 h -64 q -13,0 -22.5,-9.5 -9.5,-9.5 -9.5,-22.5 v -64 q 0,-13 9.5,-22.5 9.5,-9.5 22.5,-9.5 h 64 q 13,0 22.5,9.5 9.5,9.5 9.5,22.5 z m -255.99998,-256 v 64 q 0,13 -9.5,22.5 -9.5,9.5 -22.5,9.5 h -64 q -13,0 -22.5,-9.5 -9.5,-9.5 -9.5,-22.5 v -64 q 0,-13 9.5,-22.5 9.5,-9.5 22.5,-9.5 h 64 q 13,0 22.5,9.5 9.5,9.5 9.5,22.5 z m -256,-256.0000016 V 59.182508 q 0,13 -9.5,22.5 -9.5,9.5 -22.5,9.5 h -64 q -13,0 -22.5,-9.5 -9.5,-9.5 -9.5,-22.5 V -4.8174916 q 0,-13.0000004 9.5,-22.5000004 9.5,-9.5 22.5,-9.5 h 64 q 13,0 22.5,9.5 9.5,9.5 9.5,22.5000004 z M 1179.6131,251.18251 v 64 q 0,13 -9.5,22.5 -9.5,9.5 -22.5,9.5 h -64 q -13,0 -22.5,-9.5 -9.5,-9.5 -9.5,-22.5 v -64 q 0,-13 9.5,-22.5 9.5,-9.5 22.5,-9.5 h 64 q 13,0 22.5,9.5 9.5,9.5 9.5,22.5 z M 923.61312,-4.8174916 V 59.182508 q 0,13 -9.5,22.5 -9.5,9.5 -22.5,9.5 h -64 q -13,0 -22.5,-9.5 -9.5,-9.5 -9.5,-22.5 V -4.8174916 q 0,-13.0000004 9.5,-22.5000004 9.5,-9.5 22.5,-9.5 h 64 q 13,0 22.5,9.5 9.5,9.5 9.5,22.5000004 z m 255.99998,0 V 59.182508 q 0,13 -9.5,22.5 -9.5,9.5 -22.5,9.5 h -64 q -13,0 -22.5,-9.5 -9.5,-9.5 -9.5,-22.5 V -4.8174916 q 0,-13.0000004 9.5,-22.5000004 9.5,-9.5 22.5,-9.5 h 64 q 13,0 22.5,9.5 9.5,9.5 9.5,22.5000004 z M 923.61312,1371.1825 H 1307.6131 V -164.81749 H 155.61312 V 1371.1825 h 384 v -224 q 0,-13 9.5,-22.5 9.5,-9.5 22.5,-9.5 h 320 q 13,0 22.5,9.5 9.5,9.5 9.5,22.5 v 224 z M 1435.6131,-228.81749 V 1435.1825 q 0,26 -19,45 -19,19 -45,19 H 91.613119 q -26,0 -45,-19 -19,-19 -19,-45 V -228.81749 q 0,-26 19,-45 19,-19 45,-19 H 1371.6131 q 26,0 45,19 19,19 19,45 z" />
</svg>
